<?xml version="1.0" encoding="UTF-8" standalone="no"?>
<!-- Created with Inkscape (http://www.inkscape.org/) -->

<svg
   version="1.1"
   id="svg302"
   width="3831.5247"
   height="3750.3562"
   viewBox="0 0 3831.5247 3750.3562"
   sodipodi:docname="HP.svg"
   xmlns:inkscape="http://www.inkscape.org/namespaces/inkscape"
   xmlns:sodipodi="http://sodipodi.sourceforge.net/DTD/sodipodi-0.dtd"
   xmlns="http://www.w3.org/2000/svg"
   xmlns:svg="http://www.w3.org/2000/svg">
  <sodipodi:namedview
     id="namedview799"
     pagecolor="#ffffff"
     bordercolor="#000000"
     borderopacity="0.25"
     inkscape:showpageshadow="2"
     inkscape:pageopacity="0.0"
     inkscape:pagecheckerboard="0"
     inkscape:deskcolor="#d1d1d1"
     showgrid="false" />
  <defs
     id="defs306" />
  <path
     style="display:inline;fill:#000000;fill-opacity:1;stroke:#000000;stroke-width:12;stroke-opacity:1"
     d="M 1948.6323,6.3339687 C 2464.6838,16.047644 2974.8467,239.5789 3326.2459,617.62922 c 351.3993,378.05032 537.4215,906.55548 492.7201,1420.75898 -41.3167,475.2689 -277.6514,929.4821 -638.8773,1241.0963 -361.2259,311.6142 -842.5066,478.4882 -1319.348,464.0011 C 1350.8047,3727.9931 848.9173,3503.9498 502.40709,3129.5097 155.89688,2755.0696 -28.971391,2234.0574 11.500978,1725.494 49.230089,1251.4016 280.94698,796.79863 638.10885,482.75642 995.27072,168.7142 1473.1252,-2.616537 1948.6323,6.3339687 Z"
     id="path483" />
  <path
     style="display:inline;fill:#ffffff;fill-opacity:1;stroke:#000000;stroke-width:12"
     d="m 1962.695,69.615933 c 482.9796,10.617256 959.1555,220.455107 1290.5754,571.941777 331.42,351.48667 513.0955,840.53929 488.351,1323.00149 -24.0713,469.3352 -242.6414,925.167 -591.4739,1240.0811 -348.8324,314.914 -823.2855,485.7358 -1292.9225,468.532 C 1389.3087,3656.0315 930.24949,3452.4465 605.6417,3115.0013 281.03391,2777.5562 95.211527,2309.6779 102.90826,1841.511 110.73086,1365.6883 318.61305,896.88539 663.87318,569.37371 1009.1333,241.86203 1486.9229,59.157119 1962.695,69.615933 Z"
     id="path6491" />
  <g
     id="g24500"
     style="fill:#000000;fill-opacity:1"
     transform="translate(-863.89956,-78.041987)">
    <path
       style="display:inline;opacity:1;fill:#ffffff;fill-opacity:1;stroke:#000000;stroke-width:20;stroke-dasharray:none;stroke-opacity:1"
       d="m 2343.0455,3702.8743 c -56.9834,-16.4064 -85.9869,-27.539 -96.2419,-43.2133 -10.2549,-15.6743 -1.7589,-35.889 15.3803,-64.1614 17.1392,-28.2723 42.9202,-64.6001 78.3704,-101.808 35.4502,-37.208 80.567,-75.2936 329.8909,-184.5741 249.324,-109.2804 702.8357,-289.7476 957.1363,-364.7477 254.3007,-75.0001 309.3783,-44.5317 345.4139,-19.3356 36.0356,25.196 53.0276,45.1177 86.4271,61.2309 33.3995,16.1132 83.2037,28.4178 120.9973,36.621 37.7936,8.2032 63.5746,12.3047 40.7215,60.06 -22.8531,47.7553 -94.3369,139.1608 -177.2488,218.5568 -82.9119,79.396 -177.247,146.7782 -317.5823,218.5571 -140.3353,71.7788 -326.6618,147.95 -527.0567,189.1128 -200.3948,41.1627 -414.8417,47.3149 -564.5533,39.5512 -149.7116,-7.7638 -234.6714,-29.4432 -291.6547,-45.8497 z"
       id="path24495" />
    <path
       style="opacity:1;fill:#b2b2b2;fill-opacity:1;stroke:none;stroke-width:17;stroke-dasharray:none;stroke-opacity:1"
       d="m 3558.638,3347.9537 c -21.7521,19.059 -43.504,38.1178 -65.1525,52.3603 -21.6485,14.2425 -43.193,23.6682 -54.2246,28.5883 -11.0316,4.9202 -11.5496,5.3346 -12.0675,5.7489 0,0 -126.7835,-4.6611 -126.7835,-4.6611 0,0 -156.9256,-26.1025 -156.9256,-26.1025 0,0 -63.3917,-32.3173 -63.3917,-32.3173 0,0 0,-21.7521 0,-21.7521 0,0 84.5223,29.8314 84.5223,29.8314 0,0 142.3206,11.1868 142.3206,11.1868 0,0 98.8166,-10.5653 98.8166,-10.5653 0,0 152.8859,-32.3174 152.8859,-32.3174 z"
       id="path44317" />
    <path
       style="opacity:1;fill:#b2b2b2;fill-opacity:1;stroke:none;stroke-width:17;stroke-dasharray:none;stroke-opacity:1"
       d="m 3819.7698,3473.4768 c -66.7976,22.2659 -133.5947,44.5316 -185.158,57.2027 -51.5632,12.6711 -87.8904,15.7472 -137.4037,25.8549 -49.5133,10.1077 -112.207,27.2459 -169.3374,25.6349 -57.1303,-1.611 -108.6915,-21.9719 -123.414,-5.1253 -14.7225,16.8466 7.3961,70.8978 14.1349,97.3385 6.7388,26.4408 -1.9048,25.2688 -10.5474,24.0969 0,0 0.8788,11.4259 0.8788,11.4259 0,0 -160.8416,-290.9213 -160.8416,-290.9213 0,0 -4.3946,-65.9187 -4.3946,-65.9187 0,0 14.0627,9.6681 14.0627,9.6681 0,0 94.9229,140.6266 94.9229,140.6266 0,0 78.2235,40.4301 78.2235,40.4301 0,0 110.7435,11.4259 110.7435,11.4259 0,0 174.9043,-23.7307 174.9043,-23.7307 0,0 134.4742,-36.0356 134.4742,-36.0356 0,0 159.9627,-50.0982 159.9627,-50.0982 0,0 36.9145,-17.5783 36.9145,-17.5783 0,0 2.6368,25.4886 2.6368,25.4886 0,0 -30.7621,20.215 -30.7621,20.215 z"
       id="path44335" />
    <path
       style="opacity:1;fill:#b2b2b2;fill-opacity:1;stroke:none;stroke-width:17;stroke-dasharray:none;stroke-opacity:1"
       d="m 3473.798,3413.0333 c -36.3547,16.6319 -72.7089,33.2635 -113.26,41.7867 -40.5511,8.5232 -85.2973,8.9376 -98.6591,17.2247 -13.3617,8.2871 4.661,24.4455 19.9913,35.3214 15.3302,10.8759 27.9668,16.4691 71.7823,17.7118 43.8156,1.2427 118.8069,-1.8647 160.1358,-3.9364 41.3289,-2.0716 48.993,-3.1073 56.658,-4.1431 0,0 -101.3025,29.8314 -101.3025,29.8314 0,0 -225.6,-0.6215 -225.6,-0.6215 0,0 -61.5273,-24.238 -61.5273,-24.238 0,0 -69.6066,-70.2281 -69.6066,-70.2281 0,0 -43.5041,-92.6017 -43.5041,-92.6017 0,0 32.3173,21.1306 32.3173,21.1306 0,0 122.4331,43.5041 122.4331,43.5041 0,0 160.9653,8.0794 160.9653,8.0794 0,0 89.1765,-18.8213 89.1765,-18.8213 z"
       id="path44322" />
    <path
       style="opacity:1;fill:#b2b2b2;fill-opacity:1;stroke:none;stroke-width:17;stroke-dasharray:none;stroke-opacity:1"
       d="m 3927.8017,3107.438 c 21.5449,-10.7724 43.0902,-21.5451 60.0774,-35.0106 16.9872,-13.4656 29.4167,-29.624 49.7195,-32.524 20.3029,-2.9 48.4764,7.4579 80.7941,14.087 32.3177,6.629 68.7776,9.5292 87.8359,6.8364 19.0584,-2.6928 20.7158,-10.98 22.3731,-19.2665 0,0 -36.0463,-14.9157 -36.0463,-14.9157 0,0 -65.8777,-13.6727 -65.8777,-13.6727 0,0 -84.5223,-36.0463 -84.5223,-36.0463 0,0 -36.0463,-24.8595 -36.0463,-24.8595 0,0 -31.0744,73.3356 -31.0744,73.3356 0,0 -44.7471,89.4942 -44.7471,89.4942 0,0 -2.4859,-7.4579 -2.4859,-7.4579 z"
       id="path44340" />
    <path
       style="opacity:1;fill:#b2b2b2;fill-opacity:1;stroke:none;stroke-width:17;stroke-dasharray:none;stroke-opacity:1"
       d="m 2451.7686,3418.1818 c 10.7725,9.1152 21.546,18.2312 51.7921,20.8202 30.2462,2.589 79.9642,-1.347 125.3331,-7.7692 45.369,-6.4221 86.3862,-15.33 124.4012,-9.9431 38.0149,5.3869 73.0247,25.0669 97.9875,50.8592 24.9629,25.7923 39.8783,57.6947 55.0015,85.5583 15.1231,27.8636 30.4528,51.6868 45.2652,70.435 14.8124,18.7483 29.1054,32.4198 43.3996,46.0925 0,0 83.2793,48.476 83.2793,48.476 0,0 -24.238,-23.6165 -24.238,-23.6165 0,0 -29.2099,-10.5653 -29.2099,-10.5653 0,0 -45.9901,-71.471 -45.9901,-71.471 0,0 -89.4942,-170.2876 -89.4942,-170.2876 0,0 -14.2942,-42.8827 -14.2942,-42.8827 0,0 -31.6959,-22.995 -31.6959,-22.995 0,0 -29.8314,-31.0744 -29.8314,-31.0744 0,0 -23.6165,-2.486 -23.6165,-2.486 0,0 -89.4943,30.4529 -89.4943,30.4529 0,0 -145.4281,26.724 -145.4281,26.724 0,0 -67.1206,-12.4298 -67.1206,-12.4298 0,0 -36.0463,26.1025 -36.0463,26.1025 z"
       id="path43502" />
    <g
       id="g43500">
      <path
         style="display:inline;opacity:1;fill:none;fill-opacity:1;stroke:#000000;stroke-width:20;stroke-dasharray:none;stroke-opacity:1"
         d="m 3055.1127,3343.3972 c 24.6108,21.6809 49.2204,43.3608 95.8037,59.181 46.5832,15.8202 115.1373,25.7811 164.9427,28.4177 49.8054,2.6365 80.8598,-2.0509 111.9141,-6.7384"
         id="path24502" />
      <path
         style="display:inline;opacity:1;fill:none;fill-opacity:1;stroke:#000000;stroke-width:20;stroke-dasharray:none;stroke-opacity:1"
         d="m 3055.1127,3348.6707 c 26.3682,47.4627 52.7357,94.9242 79.3966,128.323 26.661,33.3987 53.6139,52.7345 92.8726,63.8671 39.2588,11.1327 90.8207,14.0623 146.1929,10.8395 55.3722,-3.2229 114.5514,-12.5978 176.6621,-26.3677 62.1107,-13.77 127.1492,-31.9339 186.1835,-50.8308 59.0344,-18.8969 112.0612,-38.5256 165.0886,-58.1545"
         id="path24510" />
    </g>
    <path
       style="display:inline;opacity:1;fill:none;fill-opacity:1;stroke:#000000;stroke-width:20;stroke-dasharray:none;stroke-opacity:1"
       d="m 2343.0455,3702.8743 c -56.9834,-16.4064 -85.9869,-27.539 -96.2419,-43.2133 -10.2549,-15.6743 -1.7589,-35.889 15.3803,-64.1614 17.1392,-28.2723 42.9202,-64.6001 78.3704,-101.808 35.4502,-37.208 80.567,-75.2936 329.8909,-184.5741 249.324,-109.2804 702.8357,-289.7476 957.1363,-364.7477 254.3007,-75.0001 309.3783,-44.5317 345.4139,-19.3356 36.0356,25.196 53.0276,45.1177 86.4271,61.2309 33.3995,16.1132 83.2037,28.4178 120.9973,36.621 37.7936,8.2032 63.5746,12.3047 40.7215,60.06 -22.8531,47.7553 -94.3369,139.1608 -177.2488,218.5568 -82.9119,79.396 -177.247,146.7782 -317.5823,218.5571 -140.3353,71.7788 -326.6618,147.95 -527.0567,189.1128 -200.3948,41.1627 -414.8417,47.3149 -564.5533,39.5512 -149.7116,-7.7638 -234.6714,-29.4432 -291.6547,-45.8497 z"
       id="path43492" />
  </g>
  <g
     id="g1432"
     style="display:inline"
     transform="translate(-863.89956,-78.041987)">
    <path
       style="display:inline;opacity:1;fill:#e1b7b1;fill-opacity:1;stroke:#000000;stroke-width:22.9;stroke-dasharray:none"
       d="m 1815.2486,3487.7173 c -28.2646,-25.2018 -27.436,-35.5599 -27.2288,-66.2204 0.2072,-30.6606 -0.2072,-81.6215 -3.936,-121.1898 -3.7289,-39.5682 -10.7722,-67.7417 -22.5805,-98.8164 -11.8082,-31.0747 -28.3809,-65.0487 -43.9183,-102.9599 -15.5375,-37.9111 -30.0386,-79.7571 -41.2255,-118.7041 -11.187,-38.9469 -19.059,-74.9924 -21.9594,-104.2027 -2.9004,-29.2103 -0.8288,-51.5834 5.8004,-75.8219 6.6293,-24.2385 17.8158,-50.3404 29.4174,-66.2924 11.6015,-15.9519 23.6167,-21.7523 36.2541,-23.8238 12.6374,-2.0714 25.8955,-0.4142 36.0464,6.2157 10.1508,6.6299 17.1942,18.2306 20.6826,38.8269 3.4885,20.5962 3.4226,50.1864 5.4408,69.5231 2.0182,19.3367 6.1197,28.4186 13.4442,40.7236 7.3245,12.3049 17.8713,27.8321 25.6349,43.3598 7.7636,15.5277 12.744,31.0549 19.0432,45.1177 6.2991,14.0628 13.9162,26.6604 14.6485,25.7813 0.7323,-0.8791 -5.42,-15.2344 -10.2542,-30.1762 -4.8342,-14.9417 -8.3498,-30.4689 -7.764,-43.6531 0.5857,-13.1842 5.2732,-24.0239 6.5917,-37.061 1.3185,-13.0371 -0.7323,-28.2714 -1.4647,-48.6333 -0.7325,-20.3618 -0.1466,-45.8499 2.4901,-69.8739 2.6368,-24.024 7.3242,-46.5824 12.4512,-66.3583 5.1271,-19.7759 10.6935,-36.768 20.8012,-53.6143 10.1078,-16.8463 24.756,-33.5454 38.2332,-43.5066 13.4773,-9.9612 25.7819,-13.1838 35.5968,-12.8904 9.8149,0.2935 17.139,4.102 22.8516,11.5731 5.7126,7.4712 9.8142,18.604 10.5464,38.6727 0.7321,20.0687 -1.9046,49.0724 -5.2739,68.4084 -3.3693,19.3361 -7.4708,29.004 -13.4767,37.0604 -6.0058,8.0565 -13.9159,14.5018 -14.2088,14.6482 -0.2929,0.1464 7.0312,-6.0058 12.5982,-7.6167 5.5671,-1.6108 9.3756,1.3188 11.5724,7.6179 2.1968,6.2992 2.7827,15.9671 2.7827,31.9342 -10e-5,15.9672 -0.586,38.2326 -0.4395,57.4225 0.1466,19.1899 1.0255,35.303 3.0764,50.3912 2.0509,15.0883 5.2736,29.1507 9.6685,40.4302 4.3949,11.2795 9.9612,19.7754 10.547,19.9219 0.5859,0.1464 -3.8086,-8.0566 -8.0569,-19.7757 -4.2483,-11.719 -8.3498,-26.9532 -8.643,-49.952 -0.2932,-22.9988 3.2224,-53.7602 7.91,-78.2237 4.6875,-24.4635 10.5469,-42.6274 21.2405,-66.5051 10.6937,-23.8776 26.2209,-53.4671 41.8951,-77.9307 15.6742,-24.4635 31.4944,-43.7992 48.1944,-56.1043 16.6999,-12.305 34.2778,-17.5784 49.0733,-18.457 14.7955,-0.8786 26.8072,2.637 35.01,12.1591 8.2028,9.5222 12.5973,25.0494 12.89,40.7234 0.2927,15.6739 -3.5159,31.494 -8.4965,44.3847 -4.9806,12.8907 -11.1329,22.8515 -21.6795,28.7108 -10.5466,5.8593 -25.4878,7.6171 -25.3413,7.1776 0.1466,-0.4396 15.3809,-3.0763 16.4056,6.7388 1.0248,9.815 -12.1587,32.0804 -20.9479,50.245 -8.7892,18.1645 -13.1837,32.2269 -18.1643,47.4616 -4.9806,15.2347 -10.5469,31.6408 -13.7695,45.5573 -3.2227,13.9164 -4.1016,25.3421 -2.1969,36.1823 1.9047,10.8402 6.5922,21.094 10.9864,21.5331 4.3943,0.439 8.4958,-8.936 13.0369,-20.948 4.5411,-12.0119 9.5216,-26.6602 17.139,-39.8443 7.6174,-13.1841 17.8712,-24.9027 31.9344,-33.8386 14.0632,-8.9359 31.9341,-15.0882 48.341,-15.9668 16.4069,-0.8786 31.3482,3.516 44.8249,10.1082 13.4768,6.5921 25.4884,15.3811 38.9652,29.2976 13.4767,13.9165 28.418,32.9593 40.1368,52.7352 11.7188,19.7759 20.2148,40.2835 21.9722,56.2502 1.7575,15.9668 -3.223,27.3925 -9.9612,36.0349 -6.7382,8.6424 -15.2343,14.5018 -24.9021,18.1639 -9.6679,3.6622 -20.5076,5.127 -31.494,3.0765 -10.9864,-2.0505 -22.1191,-7.6168 -32.0803,-14.2086 -9.9612,-6.5918 -18.7503,-14.2089 -24.7563,-20.2148 -6.0061,-6.0059 -9.2287,-10.4004 -15.967,-13.77 -6.7383,-3.3697 -16.9921,-5.7134 -24.3171,-1.1721 -7.3251,4.5414 -11.7195,15.9671 -11.1332,29.5907 0.5863,13.6237 6.1527,29.4439 10.8402,45.8505 4.6875,16.4066 8.496,33.3986 12.3047,48.4868 3.8087,15.0882 7.6173,28.2717 13.77,41.1626 6.1527,12.8909 14.6488,25.4885 22.2661,36.3285 7.6174,10.84 14.3556,19.922 19.3359,30.4691 4.9803,10.5472 8.2029,22.5588 9.2281,33.2522 1.0252,10.6934 -0.1467,20.0683 -0.4396,19.7752 -0.293,-0.293 0.293,-10.2539 -0.5858,-20.6543 -0.8788,-10.4005 -3.2225,-21.2402 -12.1581,-37.9399 -8.9355,-16.6996 -24.4627,-39.258 -34.2775,-57.4224 -9.8148,-18.1644 -13.9163,-31.9338 -12.3047,-34.5706 1.6117,-2.6367 8.9359,5.8594 16.5534,12.3046 7.6175,6.4452 15.5276,10.8397 24.6096,12.5972 9.0821,1.7574 19.336,0.8785 28.5646,-0.7329 9.2286,-1.6114 17.4316,-3.9552 25.635,-5.713 8.2033,-1.7578 16.4064,-2.9297 22.8518,0.1473 6.4453,3.0769 11.1328,10.4011 16.2601,16.1139 5.1272,5.7128 10.6936,9.8144 10.6935,9.6678 0,-0.1465 -5.5664,-4.541 -10.4007,-10.2539 -4.8343,-5.7128 -8.9358,-12.744 -11.8658,-22.9982 -2.93,-10.2542 -4.6878,-23.7307 -4.2485,-37.3542 0.4394,-13.6234 3.0761,-27.3929 7.0313,-38.6726 3.9552,-11.2798 9.2286,-20.0688 17.1394,-25.489 7.9108,-5.4202 18.4575,-7.4709 28.2723,-5.5661 9.8149,1.9048 18.8968,7.7641 26.2209,16.5536 7.3241,8.7895 12.8904,20.5081 17.2848,37.0612 4.3944,16.5531 7.6171,37.9396 9.2283,58.0084 1.6113,20.0687 1.6113,38.8185 1.6113,57.276 0,18.4574 0,36.6213 -1.3185,53.4673 -1.3184,16.8459 -3.9551,32.3731 -10.9866,50.2444 -7.0315,17.8712 -18.4572,38.0859 -34.1313,56.9826 -15.674,18.8966 -35.5958,36.4746 -53.0278,56.3971 -17.4321,19.9224 -32.3734,42.1879 -47.3151,65.4794 -14.9418,23.2916 -29.883,47.6078 -46.2895,68.2623 -16.4066,20.6546 -34.2775,37.6466 -49.5121,51.5628 -15.2347,13.9163 -27.8322,24.7561 -39.9906,34.4242 -12.1584,9.6681 -23.8771,18.1642 -36.0354,25.0491 -12.1583,6.8848 -24.7558,12.1582 -55.2251,5.2735 -30.4692,-6.8847 -78.8086,-25.9275 -131.6577,-55.4721 -52.8491,-29.5447 -110.2046,-69.5894 -138.4692,-94.7912 z"
       id="path548" />
    <path
       style="display:inline;opacity:1;fill:#dca7aa;fill-opacity:1;stroke:none;stroke-width:17;stroke-dasharray:none;stroke-opacity:1"
       d="m 1853.8976,3118.9355 c 10.7724,-4.2468 21.5451,-8.4937 43.9553,-12.4829 22.4102,-3.9891 56.4559,-7.7205 78.3737,-5.315 21.9178,2.4056 31.7056,10.9468 57.7721,22.7561 26.0665,11.8093 68.4113,26.8869 85.0257,23.5499 16.6145,-3.337 7.4995,-25.0887 0.7215,-44.742 -6.7779,-19.6533 -11.2182,-37.2064 -13.9117,-45.0794 -2.6934,-7.8729 -3.6389,-6.0635 -4.5846,-4.2536 0,0 -113.1108,-16.7802 -113.1108,-16.7802 0,0 -54.6909,10.5653 -54.6909,10.5653 0,0 -67.1206,50.0298 -67.1206,50.0298 0,0 -12.4297,21.752 -12.4297,21.752 z"
       id="path44779" />
    <path
       style="display:inline;opacity:1;fill:#dca7aa;fill-opacity:1;stroke:none;stroke-width:17;stroke-dasharray:none;stroke-opacity:1"
       d="m 2209.5953,2900.4235 c 26.4478,21.7718 52.8968,43.5445 72.7501,58.5736 19.8533,15.0291 33.1115,23.3155 47.1983,24.3508 14.0869,1.0353 29.0023,-5.1795 37.0813,-12.6369 8.0791,-7.4575 9.322,-16.1581 10.6692,-19.9906 1.3472,-3.8325 2.7962,-2.7975 4.2463,-1.7617 0,0 -13.0512,42.8826 -13.0512,42.8826 0,0 -24.2381,23.6166 -24.2381,23.6166 0,0 -38.5322,-3.1075 -38.5322,-3.1075 0,0 -64.0132,-52.2049 -64.0132,-52.2049 0,0 -30.4529,-37.2893 -30.4529,-37.2893 0,0 -1.6576,-22.4327 -1.6576,-22.4327 z"
       id="path44784" />
    <path
       style="display:inline;opacity:1;fill:#dca7aa;fill-opacity:1;stroke:none;stroke-width:17;stroke-dasharray:none;stroke-opacity:1"
       d="m 2255.0678,3147.524 c 13.1559,2.4861 26.3108,4.9721 39.1029,4.4539 12.7922,-0.5181 25.2217,-4.0398 39.4127,-4.5057 14.191,-0.4659 30.1411,2.1234 46.0926,4.7129 0,0 -9.633,-24.5487 -9.633,-24.5487 0,0 -35.4248,-14.9157 -35.4248,-14.9157 0,0 -27.3455,6.2148 -27.3455,6.2148 0,0 -57.7983,0.6215 -57.7983,0.6215 0,0 3.7289,29.5207 3.7289,29.5207"
       id="path44794" />
    <path
       style="display:inline;opacity:1;fill:#dca7aa;fill-opacity:1;stroke:none;stroke-width:17;stroke-dasharray:none;stroke-opacity:1"
       d="m 1708.0282,2717.3849 c -12.6247,50.1104 -25.2494,100.2204 -23.2546,148.8244 1.9948,48.604 18.6077,95.6968 30.8771,138.6493 12.2695,42.9525 20.1942,81.7593 37.0482,111.711 16.854,29.9517 42.635,51.0452 53.1813,74.4832 10.5464,23.438 5.8589,49.2191 5.2731,84.3763 -0.5858,35.1572 2.9298,79.6881 4.3946,114.552 1.4648,34.8639 0.8789,60.059 -1.7576,73.2421 -2.6364,13.1832 -7.3245,14.3552 -12.0121,15.5271 0,0 -17.5783,-36.0356 -17.5783,-36.0356 0,0 2.6367,-65.9187 2.6367,-65.9187 0,0 -7.9102,-129.2006 -7.9102,-129.2006 0,0 -30.7621,-65.0398 -30.7621,-65.0398 0,0 -62.403,-169.6309 -62.403,-169.6309 0,0 -33.3988,-130.9585 -33.3988,-130.9585 0,0 -0.879,-65.0398 -0.879,-65.0398 0,0 56.5447,-99.5415 56.5447,-99.5415 z"
       id="path44808" />
    <path
       style="display:inline;opacity:1;fill:#dca7aa;fill-opacity:1;stroke:none;stroke-width:17;stroke-dasharray:none;stroke-opacity:1"
       d="m 2129.1745,2782.2092 c -0.5859,1.3184 -1.1721,2.6373 -7.3978,14.5761 -6.2258,11.9388 -18.0909,34.4971 -24.17,56.2508 -6.0791,21.7537 -6.3721,42.7008 -1.9039,61.378 4.4682,18.6772 13.6965,35.083 22.6321,39.9897 8.9357,4.9068 17.578,-1.6848 22.7049,-10.6202 5.127,-8.9354 6.7383,-20.2145 8.7891,-30.2489 2.0508,-10.0345 4.541,-18.8235 8.9357,-30.6891 4.3946,-11.8656 10.6936,-26.8074 16.9925,-41.749 0,0 -35.5962,41.3091 -35.5962,41.3091 0,0 -11.8653,33.3988 -11.8653,33.3988 0,0 -17.1389,-11.8654 -17.1389,-11.8654 0,0 4.3946,-43.5063 4.3946,-43.5063 0,0 13.6232,-78.2236 13.6232,-78.2236 z"
       id="path44799" />
    <path
       style="display:inline;opacity:1;fill:#dca7aa;fill-opacity:1;stroke:none;stroke-width:17;stroke-dasharray:none;stroke-opacity:1"
       d="m 1880.76,2628.951 c 0.2023,26.6148 0.4045,53.228 0.079,70.6577 -0.3255,17.4298 -1.1787,25.6745 -3.8789,30.9693 -2.7002,5.2947 -7.2473,7.64 -11.8868,19.1219 -4.6395,11.482 -9.3703,32.0987 -14.1011,52.7149"
       id="path44813" />
    <path
       style="display:inline;opacity:1;fill:#dca7aa;fill-opacity:1;stroke:none;stroke-width:17;stroke-dasharray:none;stroke-opacity:1"
       d="m 1982.8349,2631.9146 c -5.7129,23.8772 -11.426,47.7551 -18.2377,66.725 -6.8117,18.9699 -14.7216,33.032 -17.138,41.2356 -2.4165,8.2036 0.6597,10.5474 4.0289,13.2575 3.3692,2.71 7.0312,5.7862 9.1548,12.4515 2.1235,6.6653 2.7094,16.9191 5.1999,30.1763 2.4904,13.2572 6.8849,29.5168 10.7666,30.7616 3.8817,1.2447 7.2509,-12.5254 10.6201,-26.2951 0,0 -6.5918,-52.2955 -6.5918,-52.2955 0,0 -7.0314,-18.8967 -7.0314,-18.8967 0,0 9.6681,-24.6097 9.6681,-24.6097 0,0 -0.4395,-72.5105 -0.4395,-72.5105 z"
       id="path44823" />
    <path
       style="opacity:1;fill:#dca7aa;fill-opacity:1;stroke:none;stroke-width:17;stroke-dasharray:none;stroke-opacity:1"
       d="m 2190.7438,2607.1405 c 0.2072,1.243 0.4145,2.4871 -0.6215,12.1202 -1.036,9.6331 -3.3147,27.6559 -12.7773,42.7187 -9.4625,15.0629 -26.1081,27.1658 -33.431,39.3338 -7.323,12.168 -5.3226,24.3983 -5.4933,38.6487 -0.1707,14.2504 -2.5123,30.5197 -0.679,36.8931 1.8334,6.3734 7.8407,2.8519 13.8484,-0.6699 0,0 13.0512,-55.3124 13.0512,-55.3124 0,0 22.9951,-19.8876 22.9951,-19.8876 0,0 17.4016,-19.2661 17.4016,-19.2661 0,0 8.7008,-59.6628 8.7008,-59.6628 0,0 -22.995,-14.9157 -22.995,-14.9157 z"
       id="path44818" />
    <path
       style="display:inline;opacity:1;fill:#dca7aa;fill-opacity:1;stroke:none;stroke-width:17;stroke-dasharray:none;stroke-opacity:1"
       d="m 2450.8578,3075.7672 c -12.5978,-15.2345 -25.1947,-30.468 -36.6206,-38.452 -11.4259,-7.984 -21.6797,-8.7164 -28.199,-7.2515 -6.5192,1.465 -9.3024,5.1271 -11.5729,13.111 -2.2706,7.9839 -4.0284,20.2885 -3.955,35.1572 0.073,14.8686 1.9776,32.3001 3.2961,42.1148 1.3186,9.8146 2.0506,12.0106 2.783,14.2079 0,0 -12.3048,-8.3497 -12.3048,-8.3497 0,0 -10.9865,-32.9593 -10.9865,-32.9593 0,0 3.9551,-49.2193 3.9551,-49.2193 0,0 15.3811,-32.5199 15.3811,-32.5199 0,0 20.6545,-10.1076 20.6545,-10.1076 0,0 30.7621,13.6232 30.7621,13.6232 0,0 15.381,11.4259 15.381,11.4259 0,0 11.4259,49.2193 11.4259,49.2193 z"
       id="path44789" />
    <path
       style="opacity:1;fill:#dca7aa;fill-opacity:1;stroke:none;stroke-width:17;stroke-dasharray:none;stroke-opacity:1"
       d="m 2446.1752,3142.2413 c -11.1868,29.8314 -22.3737,59.6633 -39.9824,78.3077 -17.6087,18.6443 -41.639,26.102 -59.2482,34.2851 -17.6092,8.1831 -28.7957,17.0909 -36.7716,35.2183 -7.976,18.1275 -12.7406,45.4724 -23.5132,67.535 -10.7725,22.0625 -27.5524,38.8424 -49.4079,49.7184 -21.8555,10.876 -48.7861,15.8478 -74.06,13.362 -25.2738,-2.4857 -48.8899,-12.4293 -64.9453,-23.823 -16.0554,-11.3937 -24.5488,-24.2375 -36.2535,-35.6318 -11.7046,-11.3942 -26.62,-21.3378 -35.7353,-28.0705 -9.1153,-6.7327 -12.4298,-10.2544 -9.8404,-1.3461 2.5893,8.9083 11.0828,30.2456 16.9868,54.2767 5.904,24.031 9.2185,50.7545 10.8758,70.3314 1.6572,19.5769 1.6572,32.0064 0.4141,39.9818 -1.243,7.9754 -3.7289,11.4971 -11.2901,15.2259 -7.5612,3.7287 -20.1979,7.6647 -34.6992,8.1828 -14.5013,0.5181 -30.8668,-2.3821 -48.3721,-6.9397 -17.5054,-4.5575 -36.1497,-10.7722 -57.1769,-15.1228 -21.0273,-4.3506 -44.4362,-6.8365 -54.7934,-4.7925 -10.3571,2.0441 -7.662,8.6156 -4.9664,15.1884 0,0 189.5462,108.9295 189.5462,108.9295 0,0 91.3586,34.8033 91.3586,34.8033 0,0 90.7372,-62.1488 90.7372,-62.1488 0,0 68.3637,-77.6859 68.3637,-77.6859 0,0 64.6347,-99.4381 64.6347,-99.4381 0,0 86.3867,-96.3305 86.3867,-96.3305 0,0 36.6678,-89.4943 36.6678,-89.4943 0,0 -14.9157,-84.5223 -14.9157,-84.5223 z"
       id="path44358" />
    <g
       id="g44350"
       style="display:inline">
      <path
         style="opacity:1;fill:none;fill-opacity:1;stroke:none;stroke-width:1;stroke-dasharray:none;stroke-opacity:1"
         d="m 2046.1169,3449.7461 c -0.5856,-2.3426 -1.1716,-4.6864 -2.3436,-17.8704 -1.172,-13.184 -2.9298,-37.2073 -9.3751,-63.1356 -6.4453,-25.9282 -17.578,-53.76 -29.2967,-71.7781 -11.7186,-18.018 -24.0233,-26.2211 -36.3292,-34.4251"
         id="path5605" />
      <path
         style="opacity:1;fill:none;fill-opacity:1;stroke:#000000;stroke-width:14;stroke-dasharray:none;stroke-opacity:1"
         d="m 1850.9975,3117.5158 c 2.3437,-2.9297 4.6875,-5.8594 15.6742,-17.4321 10.9867,-11.5726 30.6154,-31.7873 52.2959,-44.8246 21.6805,-13.0374 45.4108,-18.8968 77.1989,-18.0176 31.788,0.8792 71.6314,8.4964 111.4745,16.1134"
         id="path5666" />
      <path
         style="opacity:1;fill:none;fill-opacity:1;stroke:#000000;stroke-width:14;stroke-dasharray:none;stroke-opacity:1"
         d="m 2046.1169,3467.3244 c 0,-1.1709 0,-2.3428 -1.3183,-15.2338 -1.3184,-12.8909 -3.9551,-37.5001 -9.668,-64.3073 -5.7129,-26.8071 -14.5019,-55.8108 -26.5136,-78.3699 -12.0117,-22.5591 -27.246,-38.6722 -42.4815,-54.7867"
         id="path5701" />
      <path
         style="opacity:1;fill:none;fill-opacity:1;stroke:#000000;stroke-width:14;stroke-dasharray:none;stroke-opacity:1"
         d="m 2254.42,2971.6157 c -9.96,-10.546 -19.9211,-21.093 -28.4175,-32.519 -8.4964,-11.4259 -15.5276,-23.7305 -22.5596,-36.0365"
         id="path5705" />
      <path
         style="opacity:1;fill:none;fill-opacity:1;stroke:#000000;stroke-width:14;stroke-dasharray:none;stroke-opacity:1"
         d="m 1784.1999,2803.7427 c -1.465,15.2355 -2.9298,30.47 -6.1526,42.0422 -3.2228,11.5721 -8.2032,19.4821 -13.1836,27.3922"
         id="path5709" />
    </g>
    <path
       style="display:inline;opacity:1;fill:none;fill-opacity:1;stroke:#000000;stroke-width:22.9;stroke-dasharray:none"
       d="m 1815.2486,3487.7173 c -28.2646,-25.2018 -27.436,-35.5599 -27.2288,-66.2204 0.2072,-30.6606 -0.2072,-81.6215 -3.936,-121.1898 -3.7289,-39.5682 -10.7722,-67.7417 -22.5805,-98.8164 -11.8082,-31.0747 -28.3809,-65.0487 -43.9183,-102.9599 -15.5375,-37.9111 -30.0386,-79.7571 -41.2255,-118.7041 -11.187,-38.9469 -19.059,-74.9924 -21.9594,-104.2027 -2.9004,-29.2103 -0.8288,-51.5834 5.8004,-75.8219 6.6293,-24.2385 17.8158,-50.3404 29.4174,-66.2924 11.6015,-15.9519 23.6167,-21.7523 36.2541,-23.8238 12.6374,-2.0714 25.8955,-0.4142 36.0464,6.2157 10.1508,6.6299 17.1942,18.2306 20.6826,38.8269 3.4885,20.5962 3.4226,50.1864 5.4408,69.5231 2.0182,19.3367 6.1197,28.4186 13.4442,40.7236 7.3245,12.3049 17.8713,27.8321 25.6349,43.3598 7.7636,15.5277 12.744,31.0549 19.0432,45.1177 6.2991,14.0628 13.9162,26.6604 14.6485,25.7813 0.7323,-0.8791 -5.42,-15.2344 -10.2542,-30.1762 -4.8342,-14.9417 -8.3498,-30.4689 -7.764,-43.6531 0.5857,-13.1842 5.2732,-24.0239 6.5917,-37.061 1.3185,-13.0371 -0.7323,-28.2714 -1.4647,-48.6333 -0.7325,-20.3618 -0.1466,-45.8499 2.4901,-69.8739 2.6368,-24.024 7.3242,-46.5824 12.4512,-66.3583 5.1271,-19.7759 10.6935,-36.768 20.8012,-53.6143 10.1078,-16.8463 24.756,-33.5454 38.2332,-43.5066 13.4773,-9.9612 25.7819,-13.1838 35.5968,-12.8904 9.8149,0.2935 17.139,4.102 22.8516,11.5731 5.7126,7.4712 9.8142,18.604 10.5464,38.6727 0.7321,20.0687 -1.9046,49.0724 -5.2739,68.4084 -3.3693,19.3361 -7.4708,29.004 -13.4767,37.0604 -6.0058,8.0565 -13.9159,14.5018 -14.2088,14.6482 -0.2929,0.1464 7.0312,-6.0058 12.5982,-7.6167 5.5671,-1.6108 9.3756,1.3188 11.5724,7.6179 2.1968,6.2992 2.7827,15.9671 2.7827,31.9342 -10e-5,15.9672 -0.586,38.2326 -0.4395,57.4225 0.1466,19.1899 1.0255,35.303 3.0764,50.3912 2.0509,15.0883 5.2736,29.1507 9.6685,40.4302 4.3949,11.2795 9.9612,19.7754 10.547,19.9219 0.5859,0.1464 -3.8086,-8.0566 -8.0569,-19.7757 -4.2483,-11.719 -8.3498,-26.9532 -8.643,-49.952 -0.2932,-22.9988 3.2224,-53.7602 7.91,-78.2237 4.6875,-24.4635 10.5469,-42.6274 21.2405,-66.5051 10.6937,-23.8776 26.2209,-53.4671 41.8951,-77.9307 15.6742,-24.4635 31.4944,-43.7992 48.1944,-56.1043 16.6999,-12.305 34.2778,-17.5784 49.0733,-18.457 14.7955,-0.8786 26.8072,2.637 35.01,12.1591 8.2028,9.5222 12.5973,25.0494 12.89,40.7234 0.2927,15.6739 -3.5159,31.494 -8.4965,44.3847 -4.9806,12.8907 -11.1329,22.8515 -21.6795,28.7108 -10.5466,5.8593 -25.4878,7.6171 -25.3413,7.1776 0.1466,-0.4396 15.3809,-3.0763 16.4056,6.7388 1.0248,9.815 -12.1587,32.0804 -20.9479,50.245 -8.7892,18.1645 -13.1837,32.2269 -18.1643,47.4616 -4.9806,15.2347 -10.5469,31.6408 -13.7695,45.5573 -3.2227,13.9164 -4.1016,25.3421 -2.1969,36.1823 1.9047,10.8402 6.5922,21.094 10.9864,21.5331 4.3943,0.439 8.4958,-8.936 13.0369,-20.948 4.5411,-12.0119 9.5216,-26.6602 17.139,-39.8443 7.6174,-13.1841 17.8712,-24.9027 31.9344,-33.8386 14.0632,-8.9359 31.9341,-15.0882 48.341,-15.9668 16.4069,-0.8786 31.3482,3.516 44.8249,10.1082 13.4768,6.5921 25.4884,15.3811 38.9652,29.2976 13.4767,13.9165 28.418,32.9593 40.1368,52.7352 11.7188,19.7759 20.2148,40.2835 21.9722,56.2502 1.7575,15.9668 -3.223,27.3925 -9.9612,36.0349 -6.7382,8.6424 -15.2343,14.5018 -24.9021,18.1639 -9.6679,3.6622 -20.5076,5.127 -31.494,3.0765 -10.9864,-2.0505 -22.1191,-7.6168 -32.0803,-14.2086 -9.9612,-6.5918 -18.7503,-14.2089 -24.7563,-20.2148 -6.0061,-6.0059 -9.2287,-10.4004 -15.967,-13.77 -6.7383,-3.3697 -16.9921,-5.7134 -24.3171,-1.1721 -7.3251,4.5414 -11.7195,15.9671 -11.1332,29.5907 0.5863,13.6237 6.1527,29.4439 10.8402,45.8505 4.6875,16.4066 8.496,33.3986 12.3047,48.4868 3.8087,15.0882 7.6173,28.2717 13.77,41.1626 6.1527,12.8909 14.6488,25.4885 22.2661,36.3285 7.6174,10.84 14.3556,19.922 19.3359,30.4691 4.9803,10.5472 8.2029,22.5588 9.2281,33.2522 1.0252,10.6934 -0.1467,20.0683 -0.4396,19.7752 -0.293,-0.293 0.293,-10.2539 -0.5858,-20.6543 -0.8788,-10.4005 -3.2225,-21.2402 -12.1581,-37.9399 -8.9355,-16.6996 -24.4627,-39.258 -34.2775,-57.4224 -9.8148,-18.1644 -13.9163,-31.9338 -12.3047,-34.5706 1.6117,-2.6367 8.9359,5.8594 16.5534,12.3046 7.6175,6.4452 15.5276,10.8397 24.6096,12.5972 9.0821,1.7574 19.336,0.8785 28.5646,-0.7329 9.2286,-1.6114 17.4316,-3.9552 25.635,-5.713 8.2033,-1.7578 16.4064,-2.9297 22.8518,0.1473 6.4453,3.0769 11.1328,10.4011 16.2601,16.1139 5.1272,5.7128 10.6936,9.8144 10.6935,9.6678 0,-0.1465 -5.5664,-4.541 -10.4007,-10.2539 -4.8343,-5.7128 -8.9358,-12.744 -11.8658,-22.9982 -2.93,-10.2542 -4.6878,-23.7307 -4.2485,-37.3542 0.4394,-13.6234 3.0761,-27.3929 7.0313,-38.6726 3.9552,-11.2798 9.2286,-20.0688 17.1394,-25.489 7.9108,-5.4202 18.4575,-7.4709 28.2723,-5.5661 9.8149,1.9048 18.8968,7.7641 26.2209,16.5536 7.3241,8.7895 12.8904,20.5081 17.2848,37.0612 4.3944,16.5531 7.6171,37.9396 9.2283,58.0084 1.6113,20.0687 1.6113,38.8185 1.6113,57.276 0,18.4574 0,36.6213 -1.3185,53.4673 -1.3184,16.8459 -3.9551,32.3731 -10.9866,50.2444 -7.0315,17.8712 -18.4572,38.0859 -34.1313,56.9826 -15.674,18.8966 -35.5958,36.4746 -53.0278,56.3971 -17.4321,19.9224 -32.3734,42.1879 -47.3151,65.4794 -14.9418,23.2916 -29.883,47.6078 -46.2895,68.2623 -16.4066,20.6546 -34.2775,37.6466 -49.5121,51.5628 -15.2347,13.9163 -27.8322,24.7561 -39.9906,34.4242 -12.1584,9.6681 -23.8771,18.1642 -36.0354,25.0491 -12.1583,6.8848 -24.7558,12.1582 -55.2251,5.2735 -30.4692,-6.8847 -78.8086,-25.9275 -131.6577,-55.4721 -52.8491,-29.5447 -110.2046,-69.5894 -138.4692,-94.7912 z"
       id="path44352" />
  </g>
  <g
     id="g22896"
     style="display:inline;stroke-width:20;stroke-dasharray:none"
     transform="translate(-863.89956,-78.041987)">
    <path
       style="display:inline;opacity:1;fill:#e1b7b1;fill-opacity:1;stroke:#000000;stroke-width:20;stroke-dasharray:none;stroke-opacity:1"
       d="m 2673.6397,2070.7972 c 11.1868,-34.8039 36.0464,-54.6915 72.0933,-76.651 36.0469,-21.9596 83.279,-45.9899 137.9706,-66.7064 54.6917,-20.7164 116.8393,-38.1177 190.1757,-50.9618 73.3365,-12.8441 157.8571,-21.1304 243.6235,-9.1144 85.7663,12.016 172.7728,44.3327 258.9532,86.5945 86.1805,42.2618 171.5297,94.4658 226.5517,116.2729 55.0219,21.8071 79.7138,13.2179 85.9284,43.0504 6.2147,29.8325 -6.0483,98.0836 -8.4507,157.8986 -2.4024,59.815 5.0552,111.1902 6.7124,168.3676 1.6571,57.1774 -2.486,120.1536 -11.6014,185.6176 -9.1153,65.4639 -23.2021,133.4119 -41.0183,185.617 -17.8162,52.2051 -39.3607,88.6649 -80.3793,134.241 -41.0187,45.5761 -101.509,100.266 -170.7019,151.2284 -69.1929,50.9624 -147.0845,98.1945 -221.6635,128.8547 -74.5789,30.6602 -145.8414,44.747 -203.0186,50.1333 -57.1771,5.3863 -100.266,2.0718 -147.4996,-7.872 -47.2335,-9.9439 -98.6088,-26.5165 -155.372,-53.8622 -56.7631,-27.3456 -118.9106,-65.4628 -171.1162,-109.7959 -52.2055,-44.3331 -94.4658,-94.8797 -126.7834,-139.2129 -32.3177,-44.3331 -54.6908,-82.4502 -63.8063,-125.1263 -9.1155,-42.6761 -4.9723,-89.9082 7.4575,-136.7276 12.4299,-46.8194 33.1458,-93.223 55.1052,-136.7276 21.9595,-43.5046 45.1612,-84.1076 63.3916,-122.2258 18.2305,-38.1182 31.4886,-73.7494 38.5322,-113.1104 7.0437,-39.3611 7.8723,-82.4501 7.0437,-128.855 -0.8287,-46.4049 -3.3146,-96.1229 7.8722,-130.9267 z"
       id="path22891" />
    <path
       style="display:inline;opacity:1;fill:#dca7aa;fill-opacity:1;stroke:none;stroke-width:20;stroke-dasharray:none;stroke-opacity:1"
       d="m 2806.4319,2949.5811 c 5.1788,11.1869 26.3094,39.7754 44.2293,58.5235 17.9199,18.7481 32.6282,27.6559 48.3725,30.245 15.7442,2.589 32.524,-1.1398 49.6149,-8.2871 17.0909,-7.1472 34.4922,-17.7123 47.5433,-30.5562 13.0511,-12.844 21.7517,-27.9666 25.4808,-38.7387 3.7291,-10.7721 2.4862,-17.1939 -1.3464,-18.1268 -3.8326,-0.9328 -10.2545,3.6246 -23.2022,10.1503 -12.9477,6.5257 -32.4206,15.0192 -62.5628,15.0193 -30.1422,1e-4 -70.9524,-8.4934 -96.7443,-15.8475 -25.7918,-7.3541 -36.564,-13.5688 -31.3851,-2.3818 z"
       id="path33682" />
    <path
       style="display:inline;opacity:1;fill:#dca7aa;fill-opacity:1;stroke:none;stroke-width:20;stroke-dasharray:none;stroke-opacity:1"
       d="m 3264.9935,2249.4533 c -16.1098,-3.1085 -43.5505,-14.5488 -66.2504,-20.5165 -22.6999,-5.9678 -40.6562,-6.4618 -60.1423,-5.6969 -19.4861,0.7649 -40.5,2.7887 -55.4024,12.5903 -14.9024,9.8015 -23.6911,27.379 -33.9454,47.155 -10.2542,19.7761 -21.9726,41.7481 -30.0294,68.8488 -8.0569,27.1007 -12.4514,59.3269 -13.9161,81.8861 -1.4648,22.5591 1e-4,35.4496 6.739,48.0475 6.7389,12.5978 18.7505,24.9024 26.3677,33.8382 7.6171,8.9357 10.8398,14.5022 13.3301,18.8968 2.4902,4.3946 4.248,7.6172 -4.3948,10.5463 -8.6428,2.9291 -27.6856,5.5658 -46.1429,5.4195 -18.4573,-0.1464 -36.3282,-3.0761 -49.8051,-9.8141 -13.4769,-6.738 -22.5589,-17.2848 -25.9286,-26.0743 -3.3697,-8.7895 -1.026,-15.8206 2.0503,-24.1705 3.0762,-8.3498 6.8848,-18.0177 10.6936,-38.2329 3.8087,-20.2152 7.6173,-50.9766 9.9611,-86.7196 2.3438,-35.7429 3.2227,-76.4652 2.7833,-102.5398 -0.4394,-26.0746 -2.1972,-37.5003 0,-51.2704 2.1972,-13.7702 8.3494,-29.8832 17.4317,-49.5127 9.0822,-19.6294 21.0939,-42.7738 32.2269,-63.1356 11.133,-20.3617 21.3869,-37.9397 29.5902,-50.0982 8.2034,-12.1585 14.3557,-18.8968 22.1199,-23.145 7.7643,-4.2482 17.1392,-6.006 51.8572,5.4205 34.718,11.4264 94.7761,36.0356 125.2447,50.3916 30.4686,14.356 31.3475,18.4576 35.1564,29.2977 3.8088,10.8402 10.547,28.4181 14.9414,46.729 4.3945,18.3109 6.4452,37.3537 7.9101,51.5629 1.4648,14.2093 2.3437,23.5842 0.3933,30.8829 -1.9503,7.2987 -6.7297,12.5219 -22.8395,9.4134 z"
       id="path33677" />
    <path
       style="display:inline;opacity:1;fill:#dca7aa;fill-opacity:1;stroke:none;stroke-width:20;stroke-dasharray:none;stroke-opacity:1"
       d="m 3156.7751,1878.4637 c 20.2151,3.589 80.5673,11.7922 136.8185,35.8167 56.2511,24.0244 108.3991,63.8678 134.7661,102.8336 26.367,38.9657 26.9529,77.0513 21.6792,106.9344 -5.2738,29.8831 -16.4065,51.5626 -19.0428,69.7274 -2.6364,18.1648 3.223,32.8131 17.8721,49.2195 14.6491,16.4065 38.0864,34.5704 56.8365,58.8875 18.7501,24.3172 32.8125,54.7857 36.0348,95.5092 3.2222,40.7234 -4.3949,91.6995 -24.9031,129.4927 -20.5082,37.7931 -53.9064,62.4023 -83.7898,84.9614 -29.8835,22.559 -56.2505,43.0667 -81.7394,77.3451 -25.489,34.2785 -50.0981,82.3249 -70.8993,131.5448 -20.8012,49.22 -37.7933,99.6102 -59.1805,148.5369 -21.3873,48.9266 -47.1682,96.3871 -75.2936,128.9069 -28.1254,32.5199 -58.5939,50.0978 -91.9927,59.18 -33.3988,9.0823 -69.7266,9.6682 -114.5518,0.8791 -44.8252,-8.7891 -98.145,-26.953 -139.1614,-41.8947 -41.0164,-14.9417 -69.727,-26.6603 -95.3989,-38.4891 -25.672,-11.8288 -48.3032,-23.7669 -52.112,-20.251 -3.8089,3.516 11.2057,22.4856 50.6478,51.8929 39.4422,29.4072 103.3088,69.2506 161.3178,97.9619 58.009,28.7113 110.157,46.2893 147.0716,55.9572 36.9147,9.668 58.5942,11.4258 89.6495,10.2537 31.0553,-1.172 71.4847,-5.2735 116.8957,-14.3558 45.4111,-9.0823 95.8013,-23.1447 147.6577,-44.532 51.8565,-21.3872 105.1763,-50.0979 147.0715,-75.8797 41.8953,-25.7817 72.3636,-48.633 103.7119,-74.1219 31.3483,-25.4888 63.5747,-53.6136 92.8721,-81.4461 29.2974,-27.8326 55.6644,-55.3714 79.9812,-98.4387 24.3168,-43.0672 46.5822,-101.6604 59.1801,-151.7589 12.5979,-50.0985 15.5276,-91.6997 8.4962,-182.2293 -7.0314,-90.5297 -24.0235,-229.9816 -65.6257,-324.3192 -41.6022,-94.3377 -107.8125,-143.5559 -175.4897,-191.6039 -67.6773,-48.0479 -136.8173,-94.9225 -182.7409,-120.4114 -45.9236,-25.4889 -68.6281,-29.5903 -94.3369,-33.8385 -25.7088,-4.2482 -54.4189,-8.6426 -82.0322,-9.302 -27.6132,-0.6593 -54.1262,2.4167 -77.3446,3.4422 -23.2184,1.0255 -43.1402,2e-4 -22.925,3.5891 z"
       id="path26004" />
    <path
       style="display:inline;opacity:1;fill:#000000;fill-opacity:1;stroke:none;stroke-width:20;stroke-dasharray:none;stroke-opacity:1"
       d="m 2684.8264,2641.3223 c 1.9709,-1.3054 6.7055,1.8606 13.7386,8.6568 7.0213,6.7847 16.1949,17.2752 27.8069,29.4017 8.722,8.9512 19.8876,20.6425 31.5805,26.5571 7.3957,3.8016 16.299,6.1207 24.3522,4.8943 0,0 0,0 0,0 6.8389,-0.7997 13.9625,-3.9334 19.8749,-8.7418 5.8267,-4.4312 10.8694,-11.7753 18.886,-20.7218 3.1069,-3.6978 7.2476,-7.9744 12.8609,-12.164 4.9888,-3.9384 12.03,-6.7971 20.8391,-7.5766 3.1657,0.032 6.0983,0.3018 8.7871,0.7563 5.0374,0.8515 9.1747,2.3451 12.367,4.105 6.5022,3.1064 11.9507,6.5758 16.5658,9.7597 11.6769,7.8228 20.2434,14.7067 29.4679,19.4056 8.8416,4.5794 17.9573,7.3581 26.6518,7.8547 0,0 0,0 0,0 9.4397,0.6841 18.9318,-1.2682 27.2449,-4.6764 10.7267,-4.3292 20.9867,-11.7878 29.4338,-18.3706 9.7629,-7.7082 17.7328,-15.058 24.1131,-21.0717 7.0633,-6.9458 7.1655,-6.3561 11.3729,-11.1914 2.787,-2.6176 4.1015,-5.6339 5.7624,-5.6339 1.6609,0 4.0326,2.6072 3.1729,9.1797 -0.6609,5.3565 -2.9342,10.9965 -6.7538,17.9144 -4.5023,8.3494 -11.1328,18.3493 -20.3229,28.8533 -7.8737,9.1116 -18.6794,19.6071 -33.0247,27.8266 -11.6783,6.5866 -25.8717,11.0345 -41.532,11.3273 0,0 -10e-5,0 -10e-5,0 -14.2313,0.1387 -28.6726,-3.0295 -42.126,-9.3907 -13.309,-6.361 -23.8037,-13.9056 -34.2348,-20.7827 -4.36,-2.7838 -8.2097,-5.279 -11.6732,-6.8003 -1.8945,-0.6008 -3.1054,-1.1831 -3.601,-1.4001 -0.2606,-0.1141 -0.3104,-0.1209 -0.1441,0.033 0.9592,-0.4292 0.817,-0.01 -0.5254,0.5409 -1.7906,1.085 -3.9455,3.4748 -6.7939,6.4412 -6.6265,7.4394 -13.8318,16.3145 -24.6175,24.6461 -11.7914,8.7936 -25.6337,13.5857 -39.5278,14.305 0,0 0,0 0,0 -16.8805,0.5993 -31.9104,-4.7559 -43.4416,-12.7652 -16.5005,-11.7072 -27.2516,-26.6966 -34.3497,-37.9731 -9.4929,-14.7469 -16.1243,-28.4811 -19.5519,-37.1431 -3.618,-9.1431 -4.5941,-14.7733 -2.6583,-16.0554 z"
       id="path25182"
       class="UnoptimicedTransforms" />
    <g
       id="g33312"
       style="display:inline;stroke-width:20;stroke-dasharray:none">
      <path
         style="display:inline;opacity:1;fill:#000000;fill-opacity:1;stroke:none;stroke-width:20;stroke-dasharray:none;stroke-opacity:1"
         d="m 2879.9736,2216.2248 c 2.8451,0.2586 2.6619,31.1766 -0.1329,79.8007 0,0 0,0 0,0 -0.9615,17.5896 -1.898,42.5755 -8.7075,65.5888 -2.7415,9.0586 -6.633,17.8633 -11.4604,26.3686 -5.0073,8.8228 -10.5892,16.9839 -16.3843,25.2663 -5.3976,7.7303 -10.8611,15.3827 -16.5051,23.255 -8.3911,11.704 -16.1198,22.424 -23.8877,33.5655 -5.608,8.0607 -10.7371,15.501 -15.1552,23.2216 -3.4028,6.0928 -6.2548,11.5658 -7.4399,17.0226 -1.0037,4.1361 -0.9053,8.5631 0.063,12.6821 1.1006,4.9273 3.5711,10.0718 6.0718,15.1831 7.9399,15.8455 16.1398,28.2314 25.1765,38.3743 0,0 0,0 0,0 9.4848,10.7477 22.7828,21.6324 28.4519,26.5615 7.0635,6.1416 10.73,9.8983 10.0788,10.862 -0.6512,0.9638 -5.521,-0.9025 -13.8496,-5.4135 -7.4571,-4.039 -21.0591,-12.0954 -33.3829,-23.453 0,0 0,0 0,0 -10.8827,-10.1186 -21.0453,-23.1083 -30.3438,-39.5183 -2.9999,-5.1795 -6.188,-11.261 -8.2747,-18.3256 -1.8351,-6.4304 -2.2727,-13.4665 -0.922,-20.5164 1.6878,-8.1922 4.9657,-15.4904 8.6662,-22.1837 4.7033,-8.6978 10.0016,-16.7852 15.5566,-24.9957 7.6513,-11.3319 15.5433,-22.4643 23.8566,-34.0604 5.6154,-7.8328 11.1582,-15.5117 16.5439,-23.0583 5.8374,-8.1969 11.2175,-15.7578 15.8814,-23.6241 4.4183,-7.4501 8.0061,-14.9396 10.5506,-22.5212 6.6917,-19.5197 8.8794,-44.1229 11.1804,-61.6082 0,0 0,0 0,-10e-5 6.2368,-48.26 11.5236,-78.7322 14.3687,-78.4736 z"
         id="path25194"
         class="UnoptimicedTransforms" />
      <path
         style="display:inline;opacity:1;fill:none;fill-opacity:1;stroke:#000000;stroke-width:50;stroke-dasharray:none;stroke-opacity:1"
         d="m 2678.6116,2203.795 c 11.1866,-24.0304 22.3733,-48.0613 36.2535,-67.7421 13.8801,-19.6808 30.4528,-35.0106 49.5121,-48.2692 19.0594,-13.2586 40.6039,-24.4451 56.1412,-32.1102 15.5374,-7.6651 25.0667,-11.8082 34.5957,-15.9513"
         id="path25204" />
      <path
         style="display:inline;opacity:1;fill:none;fill-opacity:1;stroke:#000000;stroke-width:51.7;stroke-dasharray:none;stroke-opacity:1"
         d="m 3026.6446,1990.0033 c 34.8045,20.3026 69.6078,40.6046 106.0688,55.9345 36.461,15.33 74.5782,25.6879 101.0951,34.8033 26.517,9.1154 41.4324,16.9874 56.3469,24.8589"
         id="path25208" />
      <path
         style="display:inline;opacity:1;fill:none;fill-opacity:1;stroke:#000000;stroke-width:20;stroke-dasharray:none;stroke-opacity:1"
         d="m 2671.1537,2278.3736 c 22.789,4.5578 45.5769,9.1154 67.9506,11.6012 22.3737,2.4859 44.3325,2.9002 66.2907,3.3145"
         id="path25212" />
      <path
         style="display:inline;opacity:1;fill:#000000;fill-opacity:1;stroke:#000000;stroke-width:20;stroke-dasharray:none;stroke-opacity:1"
         d="m 2744.4893,2300.7471 c 9.9033,-1.6724 20.529,-0.3794 29.0668,4.9102 4.2688,2.6448 7.959,6.2588 10.5307,10.5721 2.5718,4.3132 4.0028,9.3282 3.9066,14.3491 -0.085,4.4548 -1.3662,8.8614 -3.5395,12.751 -2.1733,3.8896 -5.2253,7.2653 -8.7787,9.9534 -7.1067,5.3761 -16.0714,7.9185 -24.9711,8.37 -7.6896,0.3901 -15.5782,-0.7511 -22.4362,-4.2512 -6.8579,-3.5 -12.597,-9.5178 -14.853,-16.8794 -1.396,-4.5552 -1.4308,-9.494 -0.2723,-14.1153 1.1586,-4.6213 3.4908,-8.9221 6.5968,-12.5348 6.2119,-7.2254 15.3543,-11.5384 24.7499,-13.1251 z"
         id="path25216" />
      <path
         style="opacity:1;fill:none;fill-opacity:1;stroke:#000000;stroke-width:30;stroke-dasharray:none;stroke-opacity:1"
         d="m 3035.3455,2305.719 c 9.945,4.1438 19.8888,8.287 30.0394,7.0437 10.1506,-1.2434 20.5085,-7.8725 31.0737,-16.3662 10.5653,-8.4937 21.3376,-18.8516 32.1103,-27.5526 10.7726,-8.7009 21.5449,-15.7443 34.8038,-19.0588 13.2589,-3.3145 29.003,-2.9002 45.1619,-0.8284 16.1589,2.0718 32.7316,5.8006 49.3034,9.5293"
         id="path25224" />
      <path
         style="opacity:1;fill:none;fill-opacity:1;stroke:#000000;stroke-width:20;stroke-dasharray:none;stroke-opacity:1"
         d="m 3045.2893,2306.962 c 5.386,-10.3577 10.7722,-20.7159 15.537,-30.0383 4.7648,-9.3224 8.9079,-17.6087 14.9158,-26.1026 6.0079,-8.4939 13.8799,-17.1946 25.6887,-23.824 11.8087,-6.6293 27.5527,-11.1868 43.2965,-15.7442"
         id="path25228" />
      <path
         style="opacity:1;fill:none;fill-opacity:1;stroke:#000000;stroke-width:20;stroke-dasharray:none;stroke-opacity:1"
         d="m 3213.0909,2385.2694 c 1.2428,-6.6284 2.4858,-13.2576 7.251,-17.6085 4.7653,-4.351 13.0516,-6.4225 22.9953,-10.773 9.9438,-4.3505 21.5446,-10.9796 31.4886,-15.9515 9.944,-4.972 18.2304,-8.2865 26.5164,-11.6009"
         id="path25232" />
      <path
         style="opacity:1;fill:none;fill-opacity:1;stroke:#000000;stroke-width:20;stroke-dasharray:none;stroke-opacity:1"
         d="m 2873.7587,2539.3983 c 12.0166,7.4586 24.032,14.9164 33.9759,20.717 9.9439,5.8006 17.8159,9.9437 25.6869,14.0864"
         id="path25240" />
      <path
         style="opacity:1;fill:#000000;fill-opacity:1;stroke:none;stroke-width:20;stroke-dasharray:none;stroke-opacity:1"
         d="m 2817.8053,2796.7113 c 1.7354,-2.9502 14.8346,2.0443 33.0338,9.2097 7.4431,2.8739 16.4868,6.5428 24.7059,7.6041 1.9381,0.282 3.9337,0.4211 5.9644,0.4116 4.0793,-0.019 8.0784,-0.6353 11.7949,-1.706 5.5266,-1.5365 11.1006,-4.3868 16.0605,-7.0885 6.8996,-3.7808 14.2628,-8.7244 21.1624,-12.5052 5.4621,-3.0054 9.1202,-4.256 10.3264,-2.957 1.1683,1.2582 -0.2387,4.9032 -3.9309,10.0931 -3.5491,4.9889 -9.8486,12.2214 -18.4866,18.976 -5.0853,4 -11.5441,8.1526 -19.3886,11.0025 -5.4084,1.9207 -11.3136,3.0163 -17.4592,3.0401 -3.0543,0.012 -6.0724,-0.2417 -9.0195,-0.7447 -11.7577,-2.1563 -21.6051,-7.2029 -28.9079,-11.6582 -18.0164,-10.8029 -27.591,-20.7273 -25.8556,-23.6775 z"
         id="path25244"
         class="UnoptimicedTransforms" />
      <path
         style="opacity:1;fill:#000000;fill-opacity:1;stroke:none;stroke-width:20;stroke-dasharray:none;stroke-opacity:1"
         d="m 3754.73,2286.9399 c 1.1702,1.4842 -2.3404,6.2676 -9.0613,13.5727 -5.5751,6.0597 -17.6966,18.097 -25.4617,29.3774 -7.4533,10.5344 -12.8079,23.4349 -16.6053,39.0952 -0.5238,2.1601 -1.0052,4.3199 -1.4492,6.4682 0,0 0,0 0,0 -4.1619,20.6103 -6.1948,43.1771 -7.8342,58.3091 0,0 0,0 0,0 -2.2971,21.1233 -3.55,34.9359 -6.3859,35.1131 -2.8359,0.1773 -6.7021,-13.353 -7.8508,-35.491 0,0 0,0 0,0 -0.8616,-16.151 -0.7288,-38.38 3.5914,-61.5166 0,0 0,0 0,0 0.4418,-2.4176 0.9521,-4.8566 1.5377,-7.3075 4.2323,-17.7137 11.6555,-32.9612 21.717,-44.983 11.2347,-13.0855 24.3991,-22.0816 32.4445,-26.8553 8.6782,-5.1491 14.223,-7.2216 15.3578,-5.7823 z"
         id="path25250"
         class="UnoptimicedTransforms" />
      <path
         style="opacity:1;fill:#000000;fill-opacity:1;stroke:none;stroke-width:20;stroke-dasharray:none;stroke-opacity:1"
         d="m 3696.7215,2359.89 c 0,-1.6207 3.1168,-3.0526 8.5518,-4.41 5.3989,-1.3484 13.051,-2.37 20.9278,-5.1459 3.3302,-1.1219 6.3192,-2.5804 10.6695,-4.4411 2.7989,-1.3589 6.868,-2.9521 12.3607,-3.4235 10.3605,0.2672 19.1501,6.6015 22.0112,16.5089 0.3112,1.2977 0.555,2.5906 0.735,3.8764 1.7255,12.322 -2.4082,22.7027 -6.9802,30.0021 -4.3363,7.7718 -9.4423,14.3351 -13.7151,19.3213 -10.6272,12.4558 -18.8444,18.8489 -21.1619,17.1462 -2.3176,-1.7027 1.8883,-11.3531 9.3068,-25.261 2.8718,-5.398 6.8881,-12.5988 9.7227,-19.1305 2.482,-6.7569 5.5774,-14.1866 4.5051,-19.0898 -0.1167,-0.5333 -0.2802,-1.0413 -0.4949,-1.5239 -0.6381,-1.9324 -2.6557,-4.2223 -3.4769,-3.7073 -1.276,-0.295 -3.729,0.6233 -6.8661,1.4461 -4.3066,1.3296 -8.5093,2.5592 -13.1706,3.286 -10.194,1.4088 -19.1763,0.1534 -24.3218,-1.0347 -5.5339,-1.2777 -8.6031,-2.8732 -8.6031,-4.4193 z"
         id="path25256"
         class="UnoptimicedTransforms" />
      <path
         style="opacity:1;fill:#000000;fill-opacity:1;stroke:#000000;stroke-width:20;stroke-dasharray:none;stroke-opacity:1"
         d="m 3365.7707,1889.7369 c 21.3379,14.5019 66.085,43.0903 101.3028,66.707 35.2179,23.6168 60.9056,42.2611 78.5142,62.1491 17.6086,19.888 27.1379,41.0181 34.5956,67.1209 7.4577,26.1027 12.8439,57.1765 20.7165,79.7574 7.8726,22.5808 18.2305,36.6676 24.6523,47.8545 6.4219,11.1869 8.9078,19.4732 9.3219,28.3811 0.414,8.9079 -1.2433,18.4372 2.9007,24.0303 4.144,5.593 14.0876,7.2503 22.1664,3.3142 8.0787,-3.9362 14.2934,-13.4655 22.5801,-23.2023 8.2867,-9.7369 18.6447,-19.6805 33.7683,-22.7878 15.1236,-3.1073 35.0108,0.6216 50.9625,6.0081 15.9516,5.3865 27.9668,12.4299 36.0458,23.2028 8.0789,10.7728 12.2221,25.2739 11.8075,44.3329 -0.4147,19.059 -5.3864,42.675 -12.2229,67.5347 -6.8365,24.8597 -15.5372,50.9616 -26.931,68.9845 -11.3939,18.0229 -25.4807,27.9665 -34.1817,38.1179 -8.7011,10.1514 -12.0156,20.5094 -8.4933,36.0471 3.5222,15.5377 13.8801,36.2535 30.868,53.6551 16.9879,17.4015 40.6039,31.4883 56.7626,39.7746 16.1588,8.2864 24.8595,10.7723 30.2452,24.0313 5.3857,13.259 7.4573,37.2894 11.3933,39.3606 3.936,2.0711 9.7364,-17.8161 13.8797,-76.4438 4.1434,-58.6278 6.6293,-155.9923 6.2151,-212.1334 -0.4142,-56.1411 -3.7287,-71.0565 -3.936,-95.7093 -0.2074,-24.6528 2.6929,-59.0411 3.9359,-90.3229 1.243,-31.2818 0.8286,-59.4553 -13.8796,-78.5146 -14.7082,-19.0594 -43.7104,-29.003 -82.8646,-45.7833 -39.1542,-16.7803 -88.4579,-40.3964 -136.1058,-64.8418 -47.6478,-24.4454 -93.6369,-49.7187 -143.5636,-70.8496 -49.9267,-21.1309 -103.7879,-38.1179 -131.7551,-46.4046 -27.9672,-8.2868 -30.0387,-7.8725 -8.7008,6.6293 z"
         id="path25266" />
      <path
         style="display:inline;opacity:1;fill:#000000;fill-opacity:1;stroke:#000000;stroke-width:20;stroke-dasharray:none;stroke-opacity:1"
         d="m 3042.8079,1951.194 c 10.5479,-1.172 21.0949,-2.3439 34.8649,-1.1718 13.77,1.1721 30.762,4.6877 47.7532,8.2031"
         id="path25270" />
      <path
         style="display:inline;opacity:1;fill:#000000;fill-opacity:1;stroke:none;stroke-width:20;stroke-dasharray:none;stroke-opacity:1"
         d="m 2786.1643,2921.5174 c 1.0263,-1.5171 8.1057,1.3166 19.5657,7.039 9.8312,4.909 28.8862,15.1648 46.5796,21.5013 16.5637,5.98 35.709,10.9632 56.5187,12.8893 3.9652,0.3671 7.8903,0.6135 11.772,0.7432 9.728,0.3166 18.9074,-0.2782 27.5195,-1.9233 8.9266,-1.6727 17.4349,-4.5328 25.0869,-7.67 14.4891,-5.9294 32.6181,-15.8407 40.305,-19.6898 9.9192,-4.967 16.0428,-7.2586 16.9914,-5.8583 0.9486,1.4003 -3.3231,6.2874 -11.8194,13.609 -7.8654,6.778 -21.8592,17.6848 -38.6967,26.4681 -8.1598,4.2426 -17.6012,8.1198 -28.0871,10.6409 -10.0929,2.3952 -20.7642,3.4487 -31.807,3.204 -4.2931,-0.091 -8.6297,-0.3358 -13.0011,-0.7394 -22.9813,-2.1222 -43.7188,-8.3292 -61.0919,-16.096 -19.9414,-8.9562 -36.304,-20.9614 -45.7183,-28.6972 -10.0596,-8.2661 -15.1436,-13.9037 -14.1173,-15.4208 z"
         id="path25176"
         class="UnoptimicedTransforms" />
    </g>
    <path
       style="display:inline;opacity:1;fill:none;fill-opacity:1;stroke:#000000;stroke-width:20;stroke-dasharray:none;stroke-opacity:1"
       d="m 2673.6397,2070.7972 c 11.1868,-34.8039 36.0464,-54.6915 72.0933,-76.651 36.0469,-21.9596 83.279,-45.9899 137.9706,-66.7064 54.6917,-20.7164 116.8393,-38.1177 190.1757,-50.9618 73.3365,-12.8441 157.8571,-21.1304 243.6235,-9.1144 85.7663,12.016 172.7728,44.3327 258.9532,86.5945 86.1805,42.2618 171.5297,94.4658 226.5517,116.2729 55.0219,21.8071 79.7138,13.2179 85.9284,43.0504 6.2147,29.8325 -6.0483,98.0836 -8.4507,157.8986 -2.4024,59.815 5.0552,111.1902 6.7124,168.3676 1.6571,57.1774 -2.486,120.1536 -11.6014,185.6176 -9.1153,65.4639 -23.2021,133.4119 -41.0183,185.617 -17.8162,52.2051 -39.3607,88.6649 -80.3793,134.241 -41.0187,45.5761 -101.509,100.266 -170.7019,151.2284 -69.1929,50.9624 -147.0845,98.1945 -221.6635,128.8547 -74.5789,30.6602 -145.8414,44.747 -203.0186,50.1333 -57.1771,5.3863 -100.266,2.0718 -147.4996,-7.872 -47.2335,-9.9439 -98.6088,-26.5165 -155.372,-53.8622 -56.7631,-27.3456 -118.9106,-65.4628 -171.1162,-109.7959 -52.2055,-44.3331 -94.4658,-94.8797 -126.7834,-139.2129 -32.3177,-44.3331 -54.6908,-82.4502 -63.8063,-125.1263 -9.1155,-42.6761 -4.9723,-89.9082 7.4575,-136.7276 12.4299,-46.8194 33.1458,-93.223 55.1052,-136.7276 21.9595,-43.5046 45.1612,-84.1076 63.3916,-122.2258 18.2305,-38.1182 31.4886,-73.7494 38.5322,-113.1104 7.0437,-39.3611 7.8723,-82.4501 7.0437,-128.855 -0.8287,-46.4049 -3.3146,-96.1229 7.8722,-130.9267 z"
       id="path33671" />
  </g>
  <g
     id="g23013"
     style="display:inline;stroke-width:20;stroke-dasharray:none"
     transform="translate(-863.89956,-78.041987)">
    <path
       style="display:inline;opacity:1;fill:#f3f3f3;fill-opacity:1;stroke:#000000;stroke-width:20;stroke-dasharray:none;stroke-opacity:1"
       d="m 2678.3506,2084.204 c -13.1836,10.2544 -15.5274,-11.7185 -18.4571,-29.5899 -2.9296,-17.8714 -6.4452,-31.6408 -4.5411,-50.6845 1.9041,-19.0437 9.2283,-43.3599 21.6798,-81.5933 12.4515,-38.2334 30.0295,-90.3814 44.3852,-144.7282 14.3558,-54.3467 25.4885,-110.8892 28.8578,-152.0519 3.3693,-41.1627 -1.0251,-66.9437 -18.3103,-82.7647 -17.2852,-15.821 -47.4607,-21.6803 -79.395,-29.8836 -31.9342,-8.2032 -65.6254,-18.75 -95.2158,-33.838 -29.5905,-15.088 -55.0786,-34.7167 -75.7335,-57.1292 -20.6549,-22.4124 -36.475,-47.6075 -42.6278,-73.536 -6.1528,-25.9284 -2.6372,-52.5884 3.9547,-82.6185 6.592,-30.03 16.2598,-63.4281 26.221,-99.4641 9.9611,-36.0359 20.215,-74.7075 33.1059,-104.4446 12.891,-29.7371 28.4182,-50.5377 53.0284,-71.48564 24.6102,-20.94789 58.3013,-42.04145 84.962,-56.69015 26.6608,-14.6487 46.2895,-22.85174 64.3073,-32.22693 18.0179,-9.37518 34.424,-19.92196 47.6076,-35.88887 13.1836,-15.9669 23.1445,-37.35345 36.7679,-62.25643 13.6233,-24.90298 30.9084,-53.32069 48.6334,-76.61229 17.7251,-23.29161 35.889,-41.45551 60.0597,-57.8622 24.1707,-16.40668 54.3462,-31.05498 83.9369,-40.13711 29.5908,-9.08214 58.5944,-12.59772 86.4271,-12.45107 27.8328,0.14666 54.4927,3.95522 80.8605,12.30527 26.3678,8.35006 52.4418,21.24057 74.4148,33.69207 21.9731,12.45151 39.8441,24.46315 58.155,36.47511 18.311,12.01197 37.0608,24.02357 54.1998,31.64062 17.139,7.61705 32.6662,10.83967 52.2953,9.08157 19.6292,-1.75811 43.3594,-8.49631 66.9438,-15.52772 23.5845,-7.03142 47.0218,-14.35557 67.5301,-19.1896 20.5084,-4.83402 38.0864,-7.17776 57.1299,-5.41964 19.0436,1.75813 39.5512,7.61744 58.155,17.57891 18.6039,9.96147 35.303,24.02386 49.3656,38.9657 14.0626,14.94184 25.4883,30.76203 45.8502,36.47432 20.3618,5.71228 49.6584,1.3178 79.3955,-2.19788 29.737,-3.51567 59.9125,-6.15237 93.6047,-7.32421 33.6922,-1.17184 70.8989,-0.87888 105.47,1.75801 34.5711,2.63688 66.5044,7.61731 94.923,17.72528 28.4186,10.10797 53.3207,25.3422 78.5164,46.72959 25.1957,21.3874 50.6838,48.92624 73.5357,79.39573 22.8519,30.46949 43.0666,63.86765 60.352,94.19056 17.2855,30.3229 31.6408,57.5687 44.3851,90.089 12.7443,32.5203 23.877,70.3129 31.0547,105.9093 7.1777,35.5964 10.4003,68.9945 6.5914,100.196 -3.8089,31.2016 -14.6486,60.2052 -37.5006,89.9419 -22.8521,29.7367 -57.715,60.2051 -91.5535,84.5219 -33.8385,24.3168 -66.6507,42.4807 -96.8272,61.6707 -30.1764,19.1899 -57.7153,39.4046 -85.9872,55.3716 -28.2719,15.9671 -57.2756,27.6857 -77.0516,44.3857 -19.7761,16.6999 -30.3229,38.3794 -41.8954,71.4858 -11.5725,33.1064 -24.1701,77.6373 -35.0101,116.0169 -10.8401,38.3797 -19.9221,70.606 -23.877,101.0756 -3.955,30.4695 -2.7832,59.1802 -4.1017,86.8662 -1.3185,27.686 -5.1271,54.346 -10.2541,71.3381 -5.1271,16.992 -11.5723,24.3162 -39.258,12.8903 -27.6857,-11.4259 -76.6111,-41.6014 -136.3781,-76.612 -59.767,-35.0106 -130.3719,-74.8541 -202.2972,-106.9349 -71.9254,-32.0807 -145.167,-56.3969 -226.6142,-66.3582 -81.4473,-9.9612 -171.095,-5.5667 -241.7019,5.1269 -70.6069,10.6935 -122.169,27.6856 -170.8029,48.6334 -48.6339,20.9477 -94.3367,45.8499 -129.2009,79.5424 -34.8642,33.6924 -58.8874,76.1725 -72.071,86.4269 z"
       id="path22899" />
    <path
       style="display:inline;opacity:1;fill:#c9c9c9;fill-opacity:1;stroke:none;stroke-width:20;stroke-dasharray:none;stroke-opacity:1"
       d="m 2624.2984,955.52852 c 14.7951,1.61133 39.9907,4.24808 66.1322,5.16551 26.1415,0.91743 53.2275,0.11573 65.2391,-9.69844 12.0117,-9.81417 8.9485,-28.6412 12.0289,-46.00861 3.0804,-17.36742 12.3044,-33.27311 23.5472,-54.70207 11.2428,-21.42896 24.5032,-48.37881 36.8837,-73.532 12.3804,-25.15319 23.8798,-48.50725 26.2606,-58.42692 2.3808,-9.91966 -4.3574,-6.40408 -15.6373,7.51256 -11.2799,13.91664 -27.1001,38.23285 -41.7488,62.54982 -14.6488,24.31698 -28.1252,48.63316 -38.8186,64.60003 -10.6935,15.96687 -18.6036,23.58399 -31.055,32.66616 -12.4513,9.08217 -29.4433,19.62894 -48.1936,29.44358 -18.7503,9.81463 -39.258,18.89661 -52.5884,25.04907 -13.3303,6.15245 -19.4826,9.37508 -20.3611,11.27957 -0.8785,1.90449 3.516,2.49042 18.3111,4.10174 z"
       id="path37311" />
    <path
       id="path36094"
       style="display:inline;opacity:1;fill:#c9c9c9;fill-opacity:1;stroke:none;stroke-width:20;stroke-dasharray:none;stroke-opacity:1"
       d="m 3795.1348,1836.6191 c -2.5249,0.078 -4.6029,0.7838 -6.2344,2.0528 -6.5262,5.0759 -5.906,19.1633 5.1777,32.9394 11.0838,13.7762 32.6285,27.2404 48.6836,39.0489 16.0551,11.8084 26.6217,21.9609 35.1153,33.873 8.4935,11.9121 14.9153,25.583 19.5761,27.6543 4.6608,2.0713 7.5597,-7.4575 8.8028,-16.0547 1.2431,-8.5971 0.8291,-16.2611 -13.3614,-35.2168 -14.1904,-18.9557 -42.1567,-49.2017 -62.9765,-66.293 -15.6149,-12.8184 -27.2087,-18.2371 -34.7832,-18.0039 z" />
    <path
       style="display:inline;opacity:1;fill:#c9c9c9;fill-opacity:1;stroke:none;stroke-width:20;stroke-dasharray:none;stroke-opacity:1"
       d="m 2542.1319,1029.241 c -5.634,24.3884 -17.2351,69.9641 -13.0914,128.1777 4.1437,58.2137 24.0309,129.0618 60.0781,187.6892 36.0472,58.6273 88.251,105.0308 122.2259,133.4121 33.9749,28.3812 49.7189,38.7392 55.9331,51.5834 6.2142,12.8443 2.8996,28.1739 -0.8292,37.4959 -3.7288,9.3219 -7.872,12.6364 -13.258,8.0793 -5.386,-4.557 -12.0151,-16.9865 -36.4604,-30.1418 -24.4453,-13.1554 -66.7049,-27.0347 -107.7239,-45.4724 -41.0189,-18.4377 -80.7926,-41.4319 -78.0994,-46.0933 2.6932,-4.6614 47.8538,9.011 67.1196,11.4973 19.2659,2.4862 12.6368,-6.2144 4.5575,-14.9154 -8.0793,-8.701 -17.6087,-17.4016 -27.1383,-27.9669 -9.5297,-10.5654 -19.059,-22.9949 -30.6603,-41.4326 -11.6013,-18.4376 -25.2738,-42.8823 -36.0463,-62.5629 -10.7726,-19.6806 -18.6446,-34.596 -25.6883,-54.691 -7.0438,-20.095 -13.2586,-45.3684 -12.4301,-71.4714 0.8285,-26.103 8.7005,-53.0336 18.2301,-81.6224 9.5296,-28.5888 20.7161,-58.8338 30.7006,-77.8366 9.9846,-19.0028 18.7662,-26.7615 23.3238,-29.0397 4.5576,-2.2782 4.8909,0.9231 -0.7431,25.3115 z"
       id="path37302" />
    <path
       style="display:inline;opacity:1;fill:#c9c9c9;fill-opacity:1;stroke:none;stroke-width:20;stroke-dasharray:none;stroke-opacity:1"
       d="m 3231.9684,1457.4321 c 2.1898,39.7967 11.0978,58.2341 35.5436,71.9064 24.4459,13.6724 64.4275,22.5802 127.3391,18.0538 62.9116,-4.5263 148.7496,-22.4858 215.4005,-40.9876 66.6509,-18.5018 114.1114,-37.5446 166.7005,-57.7599 52.589,-20.2152 110.3035,-41.6018 129.9325,-50.8303 19.6291,-9.2286 1.1722,-6.2989 -58.1557,10.2543 -59.328,16.5532 -159.5224,46.7287 -227.9317,65.9184 -68.4093,19.1898 -105.0301,27.3928 -119.679,13.4768 -14.649,-13.916 -7.3248,-49.9509 -13.6239,-53.4666 -6.2991,-3.5156 -26.2208,25.488 -46.5822,44.0916 -20.3615,18.6036 -41.1621,26.8067 -56.8359,29.1507 -15.6738,2.3441 -26.2205,-1.1715 -49.5731,-37.4676 -23.3526,-36.2961 -59.5082,-105.3696 -79.8519,-109.3301 -20.3437,-3.9606 -24.8726,57.1934 -22.6828,96.9901 z"
       id="path36084" />
    <path
       style="display:inline;opacity:1;fill:#c9c9c9;fill-opacity:1;stroke:none;stroke-width:20;stroke-dasharray:none;stroke-opacity:1"
       d="m 3979.4998,1405.9564 c -34.0592,12.3655 -103.2128,41.4474 -147.2736,62.4068 -44.0608,20.9595 -63.0248,33.7945 -73.5054,42.3523 -10.4807,8.5578 -12.4769,12.837 -3.2087,19.9856 9.2681,7.1485 29.7979,17.1655 44.2206,18.7011 14.4227,1.5356 22.7375,-5.4095 53.9053,-29.9956 31.1678,-24.586 85.186,-66.8108 115.3032,-89.2703 30.1173,-22.4594 36.332,-25.1525 39.957,-28.6738 3.6251,-3.5214 4.6608,-7.8717 -29.3984,4.4939 z"
       id="path36089" />
    <path
       style="display:inline;opacity:1;fill:#c9c9c9;fill-opacity:1;stroke:none;stroke-width:20;stroke-dasharray:none;stroke-opacity:1"
       d="m 4014.908,1489.7037 c -14.9596,0.6451 -43.0849,4.7467 -66.8158,7.53 -23.7309,2.7832 -43.0666,4.2481 -54.4199,8.5697 -11.3533,4.3217 -14.7223,11.4993 -8.7888,16.7728 5.9335,5.2734 21.1678,8.6426 23.4375,16.9923 2.2698,8.3498 -8.4234,21.6797 -11.2794,32.3738 -2.856,10.6942 2.1243,18.7507 9.156,26.3679 7.0316,7.6172 16.1135,14.7948 25.1226,19.9217 9.009,5.1268 17.9445,8.2029 21.5327,16.0403 3.5882,7.8373 1.8304,20.4348 2.2704,28.4185 0.44,7.9837 3.0767,11.3528 2.124,30.323 -0.9527,18.9702 -5.4936,53.5402 -5.4936,66.4306 0,12.8904 4.5411,4.1011 9.0822,-4.6881 9.7048,-26.6157 19.4095,-53.2308 29.5448,-71.3038 10.1353,-18.073 20.7004,-27.6023 39.3454,-40.2394 18.645,-12.6372 45.3684,-28.3812 68.5708,-41.7433 23.2024,-13.3621 42.8825,-24.3415 70.0211,-41.9505 27.1385,-17.609 61.734,-41.8466 82.9682,-56.866 21.2343,-15.0193 29.1063,-20.8197 18.023,-18.8516 -11.0833,1.9681 -41.1213,11.7046 -66.8094,16.4694 -25.6882,4.7648 -47.0255,4.5577 -61.8383,14.5019 -14.8129,9.9443 -23.0992,30.0386 -33.768,44.6433 -10.6688,14.6048 -23.7197,23.7197 -37.185,27.9666 -13.4653,4.247 -27.345,3.6255 -38.6354,-0.7245 -11.2904,-4.35 -19.9911,-12.4292 -23.8241,-20.3015 -3.8331,-7.8723 -2.7973,-15.5373 2.3818,-27.4495 5.1791,-11.9123 14.5013,-28.0706 18.2659,-37.5546 3.7647,-9.4841 1.9708,-12.2941 -12.9887,-11.649 z"
       id="path37654" />
    <path
       style="display:inline;opacity:1;fill:#c9c9c9;fill-opacity:1;stroke:none;stroke-width:20;stroke-dasharray:none;stroke-opacity:1"
       d="m 3673.2846,755.86879 c -0.2933,7.03167 6.738,24.60997 14.7951,39.11216 8.057,14.50219 17.1389,25.92785 39.2586,27.39201 22.1196,1.46416 57.2756,-7.03188 94.4835,-13.91674 37.2079,-6.88486 76.4654,-12.15825 88.1843,-16.84564 11.7189,-4.68738 -4.1013,-8.78891 -28.565,-8.05665 -24.4637,0.73227 -57.5689,6.29863 -83.3505,8.49601 -25.7815,2.19738 -44.2384,1.02551 -61.231,-5.56608 -16.9925,-6.5916 -32.5197,-18.60322 -44.0921,-26.36716 -11.5724,-7.76394 -19.1896,-11.27957 -19.4829,-4.24791 z"
       id="path37664" />
    <path
       style="display:inline;opacity:1;fill:#c9c9c9;fill-opacity:1;stroke:none;stroke-width:20;stroke-dasharray:none;stroke-opacity:1"
       d="m 3687.0535,1616.7663 c 21.8274,20.6555 43.6534,41.3097 62.99,53.4679 19.3367,12.1582 36.1822,15.8203 44.5312,18.2376 8.3491,2.4174 8.2026,3.5893 7.1039,6.006 -1.0987,2.4168 -3.1495,6.0789 -12.2312,7.3971 -9.0816,1.3182 -25.1947,0.2929 -36.2545,-2.3435 -11.0597,-2.6365 -17.0655,-6.8845 -28.1987,-17.1386 -11.1331,-10.254 -27.3928,-26.5137 -35.8162,-37.5734 -8.4233,-11.0597 -9.0093,-16.919 -8.3501,-20.655 0.6592,-3.736 2.5635,-5.3473 4.4677,-6.9586"
       id="path36835" />
    <path
       style="display:inline;opacity:1;fill:#c9c9c9;fill-opacity:1;stroke:none;stroke-width:20;stroke-dasharray:none;stroke-opacity:1"
       d="m 3339.8816,743.5631 c 12.5989,9.37594 25.1967,18.75105 38.82,23.29169 13.6232,4.54064 28.2716,4.24767 44.6778,-1.46547 16.4063,-5.71313 34.5702,-16.84585 59.3267,-28.85785 24.7566,-12.01201 56.104,-24.90253 58.4477,-29.15054 2.3436,-4.24802 -24.3163,0.14647 -52.442,6.88488 -28.1257,6.73841 -57.7153,15.82037 -83.3504,21.24044 -25.6352,5.42007 -47.3147,7.17787 -68.9955,8.93577"
       id="path37659" />
    <path
       style="display:inline;opacity:1;fill:#c9c9c9;fill-opacity:1;stroke:none;stroke-width:20;stroke-dasharray:none;stroke-opacity:1"
       d="m 2738.7029,1463.3955 c 15.2345,22.2659 30.4698,44.5329 52.2967,57.4232 21.8269,12.8903 50.2446,16.4059 76.4656,14.7943 26.2211,-1.6116 50.2443,-8.3498 62.6951,-12.7441 12.4509,-4.3942 13.3301,-6.4455 14.209,-8.4963 0,0 -50.9772,-36.0356 -50.9772,-36.0356 0,0 -11.4259,28.1254 -11.4259,28.1254 0,0 -42.188,-36.0356 -42.188,-36.0356 0,0 -43.0669,36.9145 -43.0669,36.9145 0,0 -58.0084,-43.9458 -58.0084,-43.9458 z"
       id="path33896" />
    <path
       style="display:inline;opacity:1;fill:#c9c9c9;fill-opacity:1;stroke:none;stroke-width:20;stroke-dasharray:none;stroke-opacity:1"
       d="m 3001.1636,1522.7802 c 11.1868,12.0154 22.3746,24.0318 39.3621,29.1067 16.9875,5.075 39.7749,3.2106 58.2121,-3.0044 18.4373,-6.215 32.5241,-16.7801 40.6033,-23.5128 8.0792,-6.7326 10.1509,-9.633 12.2225,-12.5333 0,0 -72.0925,-58.4199 -72.0925,-58.4199 0,0 -6.2149,20.5091 -6.2149,20.5091 0,0 -25.481,-15.5372 -25.481,-15.5372 0,0 -18.6446,27.3455 -18.6446,27.3455 0,0 -41.0182,-21.1306 -41.0182,-21.1306 0,0 13.0512,57.1769 13.0512,57.1769 z"
       id="path36074" />
    <g
       id="g36071">
      <path
         style="display:inline;opacity:1;fill:#000000;fill-opacity:1;stroke:none;stroke-width:20;stroke-dasharray:none;stroke-opacity:1"
         d="m 3085.0654,1868.8131 c 32.3173,-2.2788 85.7653,-6.422 139.421,-3.5215 53.6557,2.9005 107.5169,12.8441 161.1726,28.3816 53.6557,15.5376 107.1025,36.6677 170.495,66.9139 63.3925,30.2462 136.7265,69.6063 192.2465,99.8523 55.5199,30.2459 93.2227,51.3761 114.767,58.2121 21.5443,6.8361 26.9305,-0.6216 30.0379,-9.9437 3.1075,-9.322 3.9362,-20.5086 -8.2861,-34.1816 -12.2222,-13.673 -37.4955,-29.8313 -90.7371,-59.2489 -53.2416,-29.4175 -134.4477,-72.0922 -215.8634,-105.8601 -81.4156,-33.7678 -163.0361,-58.6268 -226.6355,-74.1642 -63.5994,-15.5373 -109.1742,-21.7521 -146.4639,-22.1665 -37.2897,-0.4144 -66.2919,4.9717 -89.4944,10.7723 -23.2024,5.8006 -40.6037,12.0153 -53.8625,20.0949 -13.2589,8.0795 -22.3738,18.0232 -21.3374,22.7878 1.0365,4.7647 12.223,4.3504 44.5403,2.0716 z"
         id="path33891" />
      <path
         style="opacity:1;fill:none;fill-opacity:1;stroke:#000000;stroke-width:20;stroke-dasharray:none;stroke-opacity:1"
         d="m 2740.4607,1455.4852 c 18.1653,18.1653 36.3285,36.3285 54.4928,54.4928 0,0 43.9458,-43.9458 43.9458,-43.9458 0,0 43.9458,43.9458 43.9458,43.9458 0,0 12.3049,-35.1566 12.3049,-35.1566 0,0 52.7349,42.188 52.7349,42.188"
         id="path23978" />
      <path
         style="opacity:1;fill:none;fill-opacity:1;stroke:#000000;stroke-width:20;stroke-dasharray:none;stroke-opacity:1"
         d="m 2870.5403,1397.4768 c 41.6031,36.3294 83.2041,72.6571 124.8061,108.9856 0,0 -19.3362,-61.5242 -19.3362,-61.5242 0,0 59.7663,49.2193 59.7663,49.2193 0,0 7.0314,-45.7036 7.0314,-45.7036 0,0 36.9145,49.2193 36.9145,49.2193 0,0 -5.2735,-47.4615 -5.2735,-47.4615 0,0 75.5868,65.0398 75.5868,65.0398"
         id="path23982" />
      <path
         style="opacity:1;fill:none;fill-opacity:1;stroke:#000000;stroke-width:20;stroke-dasharray:none;stroke-opacity:1"
         d="m 2933.8223,1128.5284 c 101.9551,120.1196 203.9085,240.2371 305.8628,360.3556 0,0 -5.2735,-493.95086 -5.2735,-493.95086 0,0 124.8061,513.28706 124.8061,513.28706 0,0 270.7062,-457.0364 270.7062,-457.0364 0,0 -79.1025,437.7002 -79.1025,437.7002 0,0 404.3015,-116.0169 404.3015,-116.0169"
         id="path24002" />
      <path
         style="opacity:1;fill:none;fill-opacity:1;stroke:#000000;stroke-width:20;stroke-dasharray:none;stroke-opacity:1"
         d="m 3744.183,1515.2515 c 45.1182,-19.3363 90.2354,-38.6723 135.3531,-58.0084 0,0 -63.282,77.3446 -63.282,77.3446 0,0 198.6351,-137.1109 198.6351,-137.1109"
         id="path24006" />
      <path
         style="opacity:1;fill:none;fill-opacity:1;stroke:#000000;stroke-width:20;stroke-dasharray:none;stroke-opacity:1"
         d="m 3677.3854,1620.7215 c 20.0695,26.2221 40.1372,52.442 60.2058,78.663 0,0 -49.6588,0.4394 -49.6588,0.4394 0,0 116.0169,0 116.0169,0 m -90.5284,116.017 c 40.1384,8.4964 80.2744,16.9923 120.4116,25.4885 0,0 -46.5826,-9.668 -46.5826,-9.668 0,0 -3.5157,46.5825 -3.5157,46.5825"
         id="path24014" />
      <path
         style="opacity:1;fill:none;fill-opacity:1;stroke:#000000;stroke-width:20;stroke-dasharray:none;stroke-opacity:1"
         d="m 3855.8054,1905.4903 c 11.1337,15.8216 22.2666,31.6421 30.3231,56.5451 8.0565,24.9029 13.0369,58.887 18.0173,92.8707"
         id="path24022" />
      <path
         style="opacity:1;fill:none;fill-opacity:1;stroke:#000000;stroke-width:20;stroke-dasharray:none;stroke-opacity:1"
         d="m 3514.7859,1363.199 c -25.1958,45.118 -50.3914,90.2357 -75.5868,135.3531"
         id="path24093" />
      <path
         style="opacity:1;fill:none;fill-opacity:1;stroke:#000000;stroke-width:20;stroke-dasharray:none;stroke-opacity:1"
         d="m 2508.324,1211.2793 c 17.1949,48.6844 34.3889,97.3664 51.5834,146.0496 0,0 118.0827,121.8116 118.0827,121.8116"
         id="path24097" />
      <path
         style="opacity:1;fill:none;fill-opacity:1;stroke:#000000;stroke-width:20;stroke-dasharray:none;stroke-opacity:1"
         d="m 3886.7835,1566.1488 c 26.9319,-4.1434 53.8623,-8.2865 80.7934,-12.4298 0,0 74.5785,-72.0926 74.5785,-72.0926"
         id="path24101" />
      <path
         style="opacity:1;fill:none;fill-opacity:1;stroke:#000000;stroke-width:20;stroke-dasharray:none;stroke-opacity:1"
         d="m 3896.7273,2075.7686 c -87.4214,-53.4472 -174.844,-106.8952 -271.1757,-150.607 -96.3316,-43.7118 -201.568,-77.6857 -287.9555,-95.7091 -86.3876,-18.0233 -153.9213,-20.0949 -206.127,-9.9438 -52.2056,10.1511 -89.0798,32.5242 -105.4452,45.1616 -16.3654,12.6374 -12.2221,15.5377 23.8246,12.4297 36.0468,-3.108 103.9934,-12.2228 136.7024,-15.6701 32.7091,-3.4474 30.1775,-1.2271 27.6456,0.9935"
         id="path24105" />
    </g>
    <path
       style="display:inline;opacity:1;fill:none;fill-opacity:1;stroke:#000000;stroke-width:20;stroke-dasharray:none;stroke-opacity:1"
       d="m 2678.3506,2084.204 c -13.1836,10.2544 -15.5274,-11.7185 -18.4571,-29.5899 -2.9296,-17.8714 -6.4452,-31.6408 -4.5411,-50.6845 1.9041,-19.0437 9.2283,-43.3599 21.6798,-81.5933 12.4515,-38.2334 30.0295,-90.3814 44.3852,-144.7282 14.3558,-54.3467 25.4885,-110.8892 28.8578,-152.0519 3.3693,-41.1627 -1.0251,-66.9437 -18.3103,-82.7647 -17.2852,-15.821 -47.4607,-21.6803 -79.395,-29.8836 -31.9342,-8.2032 -65.6254,-18.75 -95.2158,-33.838 -29.5905,-15.088 -55.0786,-34.7167 -75.7335,-57.1292 -20.6549,-22.4124 -36.475,-47.6075 -42.6278,-73.536 -6.1528,-25.9284 -2.6372,-52.5884 3.9547,-82.6185 6.592,-30.03 16.2598,-63.4281 26.221,-99.4641 9.9611,-36.0359 20.215,-74.7075 33.1059,-104.4446 12.891,-29.7371 28.4182,-50.5377 53.0284,-71.48564 24.6102,-20.94789 58.3013,-42.04145 84.962,-56.69015 26.6608,-14.6487 46.2895,-22.85174 64.3073,-32.22693 18.0179,-9.37518 34.424,-19.92196 47.6076,-35.88887 13.1836,-15.9669 23.1445,-37.35345 36.7679,-62.25643 13.6233,-24.90298 30.9084,-53.32069 48.6334,-76.61229 17.7251,-23.29161 35.889,-41.45551 60.0597,-57.8622 24.1707,-16.40668 54.3462,-31.05498 83.9369,-40.13711 29.5908,-9.08214 58.5944,-12.59772 86.4271,-12.45107 27.8328,0.14666 54.4927,3.95522 80.8605,12.30527 26.3678,8.35006 52.4418,21.24057 74.4148,33.69207 21.9731,12.45151 39.8441,24.46315 58.155,36.47511 18.311,12.01197 37.0608,24.02357 54.1998,31.64062 17.139,7.61705 32.6662,10.83967 52.2953,9.08157 19.6292,-1.75811 43.3594,-8.49631 66.9438,-15.52772 23.5845,-7.03142 47.0218,-14.35557 67.5301,-19.1896 20.5084,-4.83402 38.0864,-7.17776 57.1299,-5.41964 19.0436,1.75813 39.5512,7.61744 58.155,17.57891 18.6039,9.96147 35.303,24.02386 49.3656,38.9657 14.0626,14.94184 25.4883,30.76203 45.8502,36.47432 20.3618,5.71228 49.6584,1.3178 79.3955,-2.19788 29.737,-3.51567 59.9125,-6.15237 93.6047,-7.32421 33.6922,-1.17184 70.8989,-0.87888 105.47,1.75801 34.5711,2.63688 66.5044,7.61731 94.923,17.72528 28.4186,10.10797 53.3207,25.3422 78.5164,46.72959 25.1957,21.3874 50.6838,48.92624 73.5357,79.39573 22.8519,30.46949 43.0666,63.86765 60.352,94.19056 17.2855,30.3229 31.6408,57.5687 44.3851,90.089 12.7443,32.5203 23.877,70.3129 31.0547,105.9093 7.1777,35.5964 10.4003,68.9945 6.5914,100.196 -3.8089,31.2016 -14.6486,60.2052 -37.5006,89.9419 -22.8521,29.7367 -57.715,60.2051 -91.5535,84.5219 -33.8385,24.3168 -66.6507,42.4807 -96.8272,61.6707 -30.1764,19.1899 -57.7153,39.4046 -85.9872,55.3716 -28.2719,15.9671 -57.2756,27.6857 -77.0516,44.3857 -19.7761,16.6999 -30.3229,38.3794 -41.8954,71.4858 -11.5725,33.1064 -24.1701,77.6373 -35.0101,116.0169 -10.8401,38.3797 -19.9221,70.606 -23.877,101.0756 -3.955,30.4695 -2.7832,59.1802 -4.1017,86.8662 -1.3185,27.686 -5.1271,54.346 -10.2541,71.3381 -5.1271,16.992 -11.5723,24.3162 -39.258,12.8903 -27.6857,-11.4259 -76.6111,-41.6014 -136.3781,-76.612 -59.767,-35.0106 -130.3719,-74.8541 -202.2972,-106.9349 -71.9254,-32.0807 -145.167,-56.3969 -226.6142,-66.3582 -81.4473,-9.9612 -171.095,-5.5667 -241.7019,5.1269 -70.6069,10.6935 -122.169,27.6856 -170.8029,48.6334 -48.6339,20.9477 -94.3367,45.8499 -129.2009,79.5424 -34.8642,33.6924 -58.8874,76.1725 -72.071,86.4269 z"
       id="path36099" />
  </g>
  <g
     id="g24131"
     style="display:inline"
     transform="translate(-863.89956,-78.041987)">
    <path
       style="display:inline;opacity:1;fill:#a595eb;fill-opacity:1;stroke:#000000;stroke-width:20;stroke-dasharray:none;stroke-opacity:1"
       d="m 3866.0628,2736.363 c 11.7166,-13.4799 24.0212,-6.4488 34.5682,3.2196 10.5469,9.6684 19.3359,21.973 24.0231,35.7427 4.6873,13.7698 5.2732,29.004 9.9611,42.4809 4.688,13.477 13.477,25.1956 26.9539,40.4302 13.4769,15.2346 31.6408,33.9845 38.9647,52.1488 7.3239,18.1644 3.8083,35.7423 -5.5669,67.0904 -9.3751,31.3481 -24.6094,76.4649 -60.938,128.0281 -36.3285,51.5633 -93.7499,109.5706 -153.2235,149.4153 -59.4736,39.8446 -120.9965,61.5241 -203.6152,83.4973 -82.6186,21.9731 -186.3286,44.2386 -265.432,50.3914 -79.1033,6.1528 -133.5949,-3.808 -174.0257,-18.4564 -40.4307,-14.6485 -66.7976,-33.9842 -80.8612,-30.7616 -14.0635,3.2225 -15.8213,29.0035 -7.9108,60.9379 7.9106,31.9343 25.4885,70.0199 45.9969,107.8137 20.5083,37.7938 43.9456,75.2934 61.5241,104.591 17.5785,29.2976 29.2972,50.3912 39.2584,66.2118 9.9613,15.8207 18.1644,26.3675 24.3166,37.7936 6.1523,11.426 10.2538,23.7306 0.2931,30.7614 -9.9608,7.0309 -33.984,8.7887 -63.8672,2.6365 -29.8833,-6.1521 -65.6252,-20.2145 -93.458,-38.0856 -27.8328,-17.8712 -47.7545,-39.5507 -70.8997,-72.3637 -23.1451,-32.813 -49.5121,-76.758 -67.6768,-113.6729 -18.1646,-36.9149 -28.1255,-66.7974 -35.1569,-87.5988 -7.0314,-20.8013 -11.1329,-32.5199 -19.9217,-41.0166 -8.7888,-8.4966 -22.2653,-13.77 -31.0549,-21.094 -8.7897,-7.324 -12.8912,-16.699 -19.3363,-24.0236 -6.4451,-7.3247 -15.2341,-12.598 -35.1567,-6.4461 -19.9226,6.1519 -50.977,23.7299 -90.2353,35.449 -39.2583,11.7191 -86.7188,17.5784 -123.0477,19.0435 -36.3289,1.465 -61.524,-1.4647 -78.5168,-9.0815 -16.9928,-7.6168 -25.7818,-19.9214 -26.0753,-36.0353 -0.2936,-16.1139 7.9094,-36.0356 24.3162,-53.3215 16.4068,-17.2859 41.016,-31.9342 80.5676,-47.7548 39.5516,-15.8207 94.0433,-32.8127 131.5442,-46.2896 37.5009,-13.4769 58.0089,-23.4379 86.2276,-19.3172 28.2187,4.1208 64.1459,22.3219 100.7548,37.8447 36.6089,15.5227 73.8974,28.3665 123.617,35.617 49.7195,7.2506 111.867,8.9078 176.5022,0.2067 64.6352,-8.7011 131.7546,-27.7597 184.5812,-48.4761 52.8266,-20.7165 91.3581,-43.0896 139.4203,-74.1644 48.0622,-31.0747 105.6523,-70.8491 148.1208,-105.2383 42.4685,-34.3893 69.8133,-63.3914 95.7088,-98.6093 25.8955,-35.2179 50.3402,-76.6496 68.1264,-114.3616 17.7861,-37.7121 28.9129,-71.7027 40.6294,-85.1826 z"
       id="path24126" />
    <path
       style="display:inline;opacity:1;fill:#6f649c;fill-opacity:1;stroke:none;stroke-width:17;stroke-dasharray:none;stroke-opacity:1"
       d="m 3913.8138,3042.8079 c -57.1295,65.3328 -114.2591,130.6656 -147.9509,167.2871 -33.6918,36.6215 -43.9457,44.5316 -29.8825,37.6465 14.0631,-6.8851 52.4417,-28.5647 85.9871,-52.1491 33.5455,-23.5844 62.2562,-49.0725 69.8732,-51.4159 7.617,-2.3434 -5.8594,18.4572 -32.2271,43.7994 -26.3677,25.3422 -65.6252,55.2247 -111.7686,81.2994 -46.1435,26.0747 -99.1704,48.3402 -151.1733,64.3073 -52.0029,15.9671 -102.979,25.635 -131.2507,29.7368 -28.2716,4.1018 -33.838,2.637 -16.5526,-7.471 17.2853,-10.108 57.4213,-28.8576 97.5585,-47.6078 0,0 172.2675,-97.5597 172.2675,-97.5597 0,0 126.564,-108.1067 126.564,-108.1067 0,0 68.5554,-59.7663 68.5554,-59.7663 z"
       id="path43443" />
    <path
       style="display:inline;opacity:1;fill:#6f649c;fill-opacity:1;stroke:none;stroke-width:17;stroke-dasharray:none;stroke-opacity:1"
       d="m 3916.6149,3039.6959 c 12.4297,-22.3736 24.8593,-44.7468 31.6957,-75.4069 6.8365,-30.6601 8.0795,-69.6059 3.0043,-97.7801 -5.0752,-28.1742 -16.4687,-45.5751 -26.206,-30.0379 -9.7373,15.5373 -17.8164,64.0117 -25.8957,112.4877 0,0 -45.9901,134.2413 -45.9901,134.2413 0,0 -3.7289,24.238 -3.7289,24.238 0,0 67.1207,-67.7421 67.1207,-67.7421 z"
       id="path43452" />
    <path
       style="display:inline;opacity:1;fill:#6f649c;fill-opacity:1;stroke:none;stroke-width:17;stroke-dasharray:none;stroke-opacity:1"
       d="m 3001.1636,3264.6744 c 3.5218,23.6165 7.0437,47.2341 13.1554,66.0861 6.1116,18.852 14.8123,32.9388 21.6484,37.4957 6.836,4.5569 11.8078,-0.4149 17.6083,-8.1835 5.8006,-7.7685 12.4298,-18.3338 19.059,-28.8991 0,0 -4.9719,-18.0232 -4.9719,-18.0232 0,0 -40.3967,-41.0182 -40.3967,-41.0182 0,0 -26.1025,-7.4578 -26.1025,-7.4578 z"
       id="path43462" />
    <path
       style="display:inline;opacity:1;fill:#6f649c;fill-opacity:1;stroke:none;stroke-width:17;stroke-dasharray:none;stroke-opacity:1"
       d="m 3114.8959,3674.3855 c -15.3613,-18.8977 -30.7213,-37.794 -43.5226,-49.2366 -12.8013,-11.4426 -23.042,-15.4288 -33.0741,-22.6815 -10.032,-7.2527 -19.8542,-17.7718 -36.0563,-45.6125 -16.202,-27.8408 -38.7823,-73.0014 -53.5948,-83.4631 -14.8126,-10.4618 -21.856,13.7758 -30.453,14.6045 -8.5969,0.8287 -18.7482,-21.7528 -28.8992,-44.3335 0,0 9.3223,-77.6859 9.3223,-77.6859 0,0 23.6165,-47.2331 23.6165,-47.2331 0,0 18.6446,-1.243 18.6446,-1.243 0,0 59.6629,131.7554 59.6629,131.7554 0,0 67.7421,137.9703 67.7421,137.9703 0,0 46.6116,87.159 46.6116,87.159 z"
       id="path43467" />
    <path
       style="display:inline;opacity:1;fill:#6f649c;fill-opacity:1;stroke:none;stroke-width:17;stroke-dasharray:none;stroke-opacity:1"
       d="m 3768.7927,2935.5801 c 2.6367,-1.7578 5.2737,-3.5158 19.0435,-17.5787 13.7698,-14.0628 38.672,-40.4298 57.4222,-64.7465 18.7502,-24.3168 31.3478,-46.5822 38.8188,-50.6832 7.471,-4.1011 9.8147,9.9612 11.133,26.5143 1.3183,16.5531 1.6112,35.5959 -0.5862,59.0339 -2.1974,23.4379 -6.8848,51.2696 -2.6366,46.2886 4.2482,-4.981 17.4319,-42.7742 30.6156,-80.5676 0,0 5.2735,-77.3446 5.2735,-77.3446 0,0 -35.1567,-44.8248 -35.1567,-44.8248 0,0 -24.6096,-0.8789 -24.6096,-0.8789 0,0 -60.6452,132.7164 -60.6452,132.7164 0,0 -38.6723,72.0711 -38.6723,72.0711 z"
       id="path43457" />
    <path
       style="display:inline;opacity:1;fill:#6f649c;fill-opacity:1;stroke:none;stroke-width:17;stroke-dasharray:none;stroke-opacity:1"
       d="m 3549.005,3208.4298 c 0.5179,0 1.0368,0 11.3434,0.6215 10.3066,0.6216 30.4009,1.8645 51.9454,-14.7088 21.5445,-16.5733 44.5391,-50.9616 55.9854,-68.1562 11.4463,-17.1946 11.3427,-17.1946 9.8408,-18.0747 -1.5018,-0.8801 -4.4032,-2.6416 -7.3035,-4.4025 0,0 -121.8115,104.7207 -121.8115,104.7207 z"
       id="path43434" />
    <path
       style="display:inline;opacity:1;fill:#6f649c;fill-opacity:1;stroke:none;stroke-width:17;stroke-dasharray:none;stroke-opacity:1"
       d="m 2578.7401,3323.1821 c -2.6367,4.8341 -5.2737,9.6685 -3.8081,14.6494 1.4655,4.9809 7.0319,10.1077 28.5656,11.3523 21.5338,1.2446 59.0328,-1.3921 89.2825,-7.1784 30.2497,-5.7864 53.2476,-14.7219 65.4793,-18.0904 12.2317,-3.3684 13.6966,-1.1712 13.7694,2.9303 0.073,4.1014 -1.2456,10.1072 2.4904,13.0366 3.7361,2.9294 12.524,2.7829 21.3132,2.6364 0,0 7.4708,-24.1702 7.4708,-24.1702 0,0 18.8967,-69.4344 18.8967,-69.4344 0,0 -25.928,5.713 -25.928,5.713 0,0 -64.1609,27.2464 -64.1609,27.2464 0,0 -138.4293,44.8247 -138.4293,44.8247 0,0 -14.9416,-3.5157 -14.9416,-3.5157 z"
       id="path43472" />
    <path
       style="opacity:1;fill:#6f649c;fill-opacity:1;stroke:none;stroke-width:17;stroke-dasharray:none;stroke-opacity:1"
       d="m 2887.4314,3231.7355 c 4.5576,1.6573 9.1164,3.3151 17.2993,10.0482 8.1829,6.7332 19.991,18.5413 31.6955,39.3615 11.7045,20.8202 23.3053,50.651 29.1057,67.6383 5.8003,16.9873 5.8003,21.1295 5.8003,25.2727 0,0 -28.5884,-50.3405 -28.5884,-50.3405 0,0 -14.9157,-10.5653 -14.9157,-10.5653 0,0 -18.0231,29.2099 -18.0231,29.2099 0,0 -14.2943,68.3637 -14.2943,68.3637 0,0 -32.9388,-18.6447 -32.9388,-18.6447 0,0 -47.8545,-37.9107 -47.8545,-37.9107 0,0 -15.5372,-20.5091 -15.5372,-20.5091 0,0 32.9388,-105.0314 32.9388,-105.0314 0,0 8.7008,-21.1306 8.7008,-21.1306 0,0 46.6116,24.238 46.6116,24.238 z"
       id="path43477" />
    <path
       style="display:inline;opacity:1;fill:#6f649c;fill-opacity:1;stroke:none;stroke-width:17;stroke-dasharray:none;stroke-opacity:1"
       d="m 3118.3947,3269.5683 c 25.7815,6.4454 51.5643,12.891 96.829,14.6487 45.2647,1.7576 110.0103,-1.172 142.6763,-1.3179 32.666,-0.1458 33.2519,2.4909 12.0567,10.4303 -21.1952,7.9395 -64.1703,21.1825 -101.9207,29.8241 -37.7503,8.6415 -70.2742,12.6811 -87.4692,15.8923 -17.195,3.2111 -19.0594,5.5935 -5.1268,10.203 13.9326,4.6095 43.6598,11.4457 76.0292,16.1068 32.3695,4.6611 67.3793,7.1469 79.8086,10.3579 12.4294,3.2109 2.2786,7.1469 -24.9116,9.3222 -27.1903,2.1753 -71.4186,2.5897 -109.1742,-3.8323 -37.7556,-6.4219 -69.0365,-19.68 -89.8048,-31.4363 -20.7682,-11.7564 -31.0226,-22.0107 -41.4327,-35.2692 -10.4102,-13.2585 -20.976,-29.5216 -31.5413,-45.7838 0,0 83.9815,0.8542 83.9815,0.8542 z"
       id="path40393" />
    <g
       id="g40337"
       style="display:inline">
      <path
         style="display:inline;opacity:1;fill:none;fill-opacity:1;stroke:#000000;stroke-width:20;stroke-dasharray:none;stroke-opacity:1"
         d="m 2580.4165,3332.4165 c 35.6327,-7.8723 71.2646,-15.7445 105.4466,-27.5529 34.182,-11.8085 66.9131,-27.5526 91.9797,-43.7113 25.0666,-16.1587 42.4679,-32.7314 59.8696,-49.3044"
         id="path24133" />
      <path
         style="opacity:1;fill:none;fill-opacity:1;stroke:#000000;stroke-width:20;stroke-dasharray:none;stroke-opacity:1"
         d="m 2822.7967,3230.4926 c -14.5015,19.0591 -29.0029,38.1181 -48.8905,54.691 -19.8877,16.573 -45.1609,30.6598 -70.4351,44.747"
         id="path24137" />
      <path
         style="opacity:1;fill:none;fill-opacity:1;stroke:#000000;stroke-width:20;stroke-dasharray:none;stroke-opacity:1"
         d="m 2851.3852,3220.5487 c -10.7725,12.8442 -21.545,25.6883 -30.6603,42.6761 -9.1153,16.9878 -16.573,38.1179 -20.0946,51.9981 -3.5216,13.8802 -3.1073,20.5093 -2.693,27.1374"
         id="path24141" />
      <path
         style="opacity:1;fill:none;fill-opacity:1;stroke:#000000;stroke-width:20;stroke-dasharray:none;stroke-opacity:1"
         d="m 2899.8612,3464.1719 c -2.9002,-24.0297 -5.8005,-48.0606 -4.1433,-70.2274 1.6572,-22.1669 7.872,-42.4684 15.5372,-58.6274 7.6651,-16.159 16.7801,-28.1743 26.3099,-20.7156 9.5298,7.4586 19.4734,34.3892 32.9392,66.9141 13.4658,32.5249 30.4528,70.6421 47.4403,108.1389 16.9875,37.4968 33.9745,74.3709 51.3765,104.2025 17.402,29.8316 35.2176,52.619 53.0327,75.4058"
         id="path24153" />
      <path
         style="opacity:1;fill:none;fill-opacity:1;stroke:#000000;stroke-width:20;stroke-dasharray:none;stroke-opacity:1"
         d="m 2965.0108,3368.0233 c 18.645,65.0502 37.2896,130.0993 50.9627,168.6316 13.673,38.5323 22.3737,50.5475 31.0737,62.5618"
         id="path24157" />
      <path
         style="opacity:1;fill:none;fill-opacity:1;stroke:#000000;stroke-width:20;stroke-dasharray:none;stroke-opacity:1"
         d="m 2861.3289,3295.1273 c -2.486,21.1315 -4.972,42.262 -0.2067,63.1858 4.7652,20.9237 16.7804,41.6396 28.7952,62.3547"
         id="path24161" />
      <path
         style="opacity:1;fill:none;fill-opacity:1;stroke:#000000;stroke-width:20;stroke-dasharray:none;stroke-opacity:1"
         d="m 3023.6225,3264.7471 c 14.0637,12.5987 28.1264,25.1965 52.004,34.2783 23.8775,9.0819 57.5686,14.6482 97.4132,14.941 39.8446,0.2928 85.8403,-4.6877 123.9268,-10.6937 38.0866,-6.006 68.2621,-13.0372 98.4375,-20.0684"
         id="path24165" />
      <path
         style="opacity:1;fill:none;fill-opacity:1;stroke:#000000;stroke-width:20;stroke-dasharray:none;stroke-opacity:1"
         d="m 3000.2649,3265.7328 c 2.6369,25.7826 5.2736,51.5642 15.2351,79.5433 9.9615,27.9792 27.2466,58.1548 44.5312,88.3297"
         id="path24169" />
      <path
         style="opacity:1;fill:none;fill-opacity:1;stroke:#000000;stroke-width:20;stroke-dasharray:none;stroke-opacity:1"
         d="m 3381.1906,3379.4328 c 86.7202,-37.5006 173.44,-75.0011 251.8105,-119.2403 78.3706,-44.2392 148.3896,-95.2154 193.5073,-134.1808 45.1178,-38.9654 65.3324,-65.9183 85.5476,-92.8719"
         id="path24173" />
      <path
         style="opacity:1;fill:none;fill-opacity:1;stroke:#000000;stroke-width:20;stroke-dasharray:none;stroke-opacity:1"
         d="m 3829.4379,3122.7893 c 12.8906,-24.9023 25.7813,-49.8049 39.1117,-86.5733 13.3304,-36.7683 27.0998,-85.4006 37.0609,-128.3214 9.9612,-42.9207 16.1135,-80.1274 22.266,-117.3357"
         id="path24181" />
      <path
         style="opacity:1;fill:none;fill-opacity:1;stroke:#000000;stroke-width:20;stroke-dasharray:none;stroke-opacity:1"
         d="m 3674.7486,3101.6953 c -19.629,17.2852 -39.2582,34.5706 -61.0847,51.1236 -21.8266,16.553 -45.8499,32.3732 -69.8738,48.1939"
         id="path24185" />
      <path
         style="opacity:1;fill:none;fill-opacity:1;stroke:#000000;stroke-width:20;stroke-dasharray:none;stroke-opacity:1"
         d="m 3093.2447,3350.0169 c -11.6714,-12.76 -23.3437,-25.5212 -33.2705,-38.7492 -9.9268,-13.228 -18.1074,-26.9225 -26.2889,-40.6185"
         id="path24453" />
    </g>
    <path
       style="display:inline;opacity:1;fill:none;fill-opacity:1;stroke:#000000;stroke-width:20;stroke-dasharray:none;stroke-opacity:1"
       d="m 3866.0628,2736.363 c 11.7166,-13.4799 24.0212,-6.4488 34.5682,3.2196 10.5469,9.6684 19.3359,21.973 24.0231,35.7427 4.6873,13.7698 5.2732,29.004 9.9611,42.4809 4.688,13.477 13.477,25.1956 26.9539,40.4302 13.4769,15.2346 31.6408,33.9845 38.9647,52.1488 7.3239,18.1644 3.8083,35.7423 -5.5669,67.0904 -9.3751,31.3481 -24.6094,76.4649 -60.938,128.0281 -36.3285,51.5633 -93.7499,109.5706 -153.2235,149.4153 -59.4736,39.8446 -120.9965,61.5241 -203.6152,83.4973 -82.6186,21.9731 -186.3286,44.2386 -265.432,50.3914 -79.1033,6.1528 -133.5949,-3.808 -174.0257,-18.4564 -40.4307,-14.6485 -66.7976,-33.9842 -80.8612,-30.7616 -14.0635,3.2225 -15.8213,29.0035 -7.9108,60.9379 7.9106,31.9343 25.4885,70.0199 45.9969,107.8137 20.5083,37.7938 43.9456,75.2934 61.5241,104.591 17.5785,29.2976 29.2972,50.3912 39.2584,66.2118 9.9613,15.8207 18.1644,26.3675 24.3166,37.7936 6.1523,11.426 10.2538,23.7306 0.2931,30.7614 -9.9608,7.0309 -33.984,8.7887 -63.8672,2.6365 -29.8833,-6.1521 -65.6252,-20.2145 -93.458,-38.0856 -27.8328,-17.8712 -47.7545,-39.5507 -70.8997,-72.3637 -23.1451,-32.813 -49.5121,-76.758 -67.6768,-113.6729 -18.1646,-36.9149 -28.1255,-66.7974 -35.1569,-87.5988 -7.0314,-20.8013 -11.1329,-32.5199 -19.9217,-41.0166 -8.7888,-8.4966 -22.2653,-13.77 -31.0549,-21.094 -8.7897,-7.324 -12.8912,-16.699 -19.3363,-24.0236 -6.4451,-7.3247 -15.2341,-12.598 -35.1567,-6.4461 -19.9226,6.1519 -50.977,23.7299 -90.2353,35.449 -39.2583,11.7191 -86.7188,17.5784 -123.0477,19.0435 -36.3289,1.465 -61.524,-1.4647 -78.5168,-9.0815 -16.9928,-7.6168 -25.7818,-19.9214 -26.0753,-36.0353 -0.2936,-16.1139 7.9094,-36.0356 24.3162,-53.3215 16.4068,-17.2859 41.016,-31.9342 80.5676,-47.7548 39.5516,-15.8207 94.0433,-32.8127 131.5442,-46.2896 37.5009,-13.4769 58.0089,-23.4379 86.2276,-19.3172 28.2187,4.1208 64.1459,22.3219 100.7548,37.8447 36.6089,15.5227 73.8974,28.3665 123.617,35.617 49.7195,7.2506 111.867,8.9078 176.5022,0.2067 64.6352,-8.7011 131.7546,-27.7597 184.5812,-48.4761 52.8266,-20.7165 91.3581,-43.0896 139.4203,-74.1644 48.0622,-31.0747 105.6523,-70.8491 148.1208,-105.2383 42.4685,-34.3893 69.8133,-63.3914 95.7088,-98.6093 25.8955,-35.2179 50.3402,-76.6496 68.1264,-114.3616 17.7861,-37.7121 28.9129,-71.7027 40.6294,-85.1826 z"
       id="path43374" />
  </g>
  <g
     id="g308"
     style="display:none"
     transform="translate(-863.89956,-78.041987)">
    <path
       style="display:inline;fill:none;stroke:#000000;stroke-width:17;stroke-dasharray:none"
       d="m 2826.5945,147.65792 c 482.9796,10.61725 959.1555,220.45511 1290.5754,571.94178 331.42,351.4867 513.0955,840.5393 488.351,1323.0015 -24.0713,469.3352 -242.6414,925.167 -591.4739,1240.0811 -348.8324,314.914 -823.2855,485.7358 -1292.9225,468.532 C 2253.2082,3734.0735 1794.149,3530.4885 1469.5412,3193.0433 1144.9335,2855.5981 959.11109,2387.7199 966.80782,1919.553 974.63042,1443.7303 1182.5126,974.92739 1527.7727,647.41571 1873.0328,319.90403 2350.8224,137.19911 2826.5945,147.65792 Z"
       id="path489" />
  </g>
  <path
     style="fill:#000000;fill-opacity:1;stroke:none;stroke-width:3.77953;stroke-dasharray:none;stroke-opacity:1;paint-order:stroke fill markers"
     d="m 3058.6284,2504.9112 c 1.4759,-0.5166 3.9226,2.441 7.3258,7.9041 2.7931,4.4835 8.1486,14.2513 14.0173,20.5621 6.4658,7.3062 15.3573,13.178 27.3349,18.7476 5.5097,2.5142 11.3408,4.7254 17.6246,6.8154 6.1443,2.0436 12.4684,3.8856 18.4806,5.6 6.1818,1.7172 11.3346,3.1739 16.4694,3.9003 5.126,0.6975 9.6213,0.7609 13.5822,-0.1829 5.0885,-1.0492 10.4823,-3.9983 14.6943,-6.3484 0,0 0,0 0,0 10.6077,-6.019 17.5108,-10.2952 19.0077,-8.6579 1.4969,1.6372 -2.1672,8.5506 -11.9004,18.0025 0,0 0,0 0,0 -3.8565,3.7982 -9.4882,8.4416 -17.0922,11.523 -6.1533,2.3352 -12.9523,3.2761 -19.9255,2.8206 -6.7031,-0.4035 -13.0521,-1.6632 -19.4562,-3.2042 -6.3624,-1.4875 -13.071,-3.2835 -19.8399,-5.5543 -6.8699,-2.3047 -13.4184,-4.9697 -19.6416,-8.1042 -13.6831,-6.7836 -24.3002,-15.8791 -31.2603,-26.3692 -6.4759,-10.184 -9.0612,-20.5919 -10.0482,-26.5875 -1.0715,-6.5095 -0.7465,-10.3861 0.6275,-10.867 z"
     id="path10521"
     class="UnoptimicedTransforms"
     transform="translate(-863.89956,-78.041987)" />
  <path
     style="fill:#000000;fill-opacity:1;stroke:none;stroke-width:3.77953;stroke-dasharray:none;stroke-opacity:1;paint-order:stroke fill markers"
     d="m 3188.708,2574.3455 c 1.2417,-1.0783 5.1973,0.9415 10.9945,5.5794 5.4154,4.3323 13.9971,12.2602 21.4467,22.7614 6.492,9.3613 11.2951,21.1032 13.2771,34.5816 0.6811,4.5961 1.1566,9.2753 1.4498,14.0452 0.5807,9.4481 0.4042,18.6002 -0.069,26.9505 -0.7042,13.5308 -2.3463,24.8815 -5.6312,35.1447 -5.8618,17.9861 -13.4547,26.3394 -15.9795,25.2946 -2.5249,-1.0447 0.7105,-12.2313 2.4774,-28.3177 1.1706,-9.8773 1.2103,-18.9545 1.1075,-32.5314 -0.098,-8.021 -0.2176,-16.833 -0.7321,-25.3959 -0.2629,-4.3741 -0.6215,-8.5924 -1.1092,-12.7104 -1.3206,-11.1464 -4.2233,-20.688 -8.4019,-28.7006 -5.2975,-10.3133 -11.1935,-18.7171 -14.86,-25.0702 -3.6806,-6.3778 -5.2626,-10.5088 -3.9702,-11.6312 z"
     id="path10527"
     class="UnoptimicedTransforms"
     transform="rotate(-6.9543273,2048.6894,9764.339)" />
</svg>
